<svg width="87" height="89" viewBox="0 0 87 89" xmlns="http://www.w3.org/2000/svg"><title>Artboard 1</title><g fill="none" fill-rule="evenodd"><path d="M45.69 27.975c5.24 0 10.18-4.334 10.885-9.575.706-5.24-3.024-9.575-8.265-9.575-5.24 0-10.18 4.334-10.885 9.575-.706 5.24 2.923 9.575 8.265 9.575z" fill="#46E82E"/><path d="M26.7 2.4l.2-1.8H12.5l-.2 1.8C9.6 21.8 16.8 34.1 23.4 41c7 7.4 14.8 10.3 15.2 10.4l.2.1c25.6 8.2 21.5 33.9 21.3 35l-.3 1.8 7.2.1h7.2l.3-1.8c.3-2.3 1.3-10.5-1.2-19.9-2.6-9.9-9.6-23-28.3-29-1.3-.5-21.9-9.1-18.3-35.3zM86.1 2.4l.2-1.8H71.9l-.2 1.8c-2 14.4-9.6 23.5-16.8 29 5 1.9 9.1 4.3 12.4 7.1 7.8-7.3 16.4-18.9 18.8-36.1zM30.6 58.4c-.3-.1-5.7-2.1-11.5-6.9-4.7 4.4-8.6 9.5-11.7 15.2C2.4 76 1 84.3.8 86.6l-.2 1.8H15l.2-1.9c.1-.7 1.9-16.9 16.3-27.8-.2-.1-.4-.1-.6-.2l-.3-.1z" fill="#FFF"/></g></svg>