<svg viewBox="0 0 437 121" xmlns="http://www.w3.org/2000/svg" fill-rule="evenodd" clip-rule="evenodd" stroke-linejoin="round" stroke-miterlimit="1.414"><g fill-rule="nonzero"><path d="M50 13.7L55.2.8 53.1.6C52 .5 51 .5 50 .6c-1.3.1-2.8.1-4.6.1-6.5 0-11.7.8-15.6 2.4-3.9 1.6-7 3.5-9.2 5.7-2.2 2.2-3.7 4.5-4.4 6.8-.7 2.2-1.2 3.9-1.4 5.2l-1.9 13.6H2.6L.9 47.1h10.2L1 120.3h15l10.1-73.2h13.6l1.8-12.8H27.9l1.5-11.1c.1-.9.4-1.9.8-2.9s1-2 2-2.9c.9-.9 2.3-1.7 4-2.4 1.7-.7 4.1-1 6.9-1h.2c1.2-.1 2.1-.2 2.9-.2.7 0 1.5 0 2.5-.1H50zM83.6 33c-4.8 0-9.1.5-12.7 1.5-3.6 1-6.7 2.5-9.3 4.3-2.6 1.8-4.6 4-6 6.4-1.4 2.4-2.3 5-2.6 7.8l-.6 4.6h15l.3-1.7c.5-2.5 1.7-4.7 3.5-6.5 2-2 5.5-3 10.6-3 2.6 0 4.7.3 6.3.8 1.6.6 2.8 1.3 3.7 2.2.9.9 1.4 1.8 1.6 2.8.2 1 .3 2 .2 3l-.4 3c-.2 1.2-.5 2.2-1.1 3-.6.9-1.2 1.7-1.9 2.4s-1.3 1.2-2 1.5c-.7.3-1.2.6-1.7.8-.5.1-1.6.5-3.3 1.1-1.8.6-3.9 1.4-6.3 2.1l-1 .3c-2.1.7-4.2 1.4-6.4 2.1-2.5.8-4.8 1.6-6.9 2.2-4.1 1.4-7.6 3.9-10.2 7.3-2.6 3.4-4.2 7.2-4.8 11.4l-1 7.5c-.3 2-.2 4.2.2 6.5.4 2.4 1.5 4.6 3.4 6.6 1.8 2 4.5 3.6 7.9 4.9 3.4 1.3 8 2 13.7 2 5.7 0 10.5-.7 14.2-2 3.8-1.3 6.9-3 9.2-4.9 2.4-2 4.1-4.2 5.2-6.6 1-2.3 1.7-4.5 2-6.5l6.5-47.2c.8-5.8-.8-10.5-4.8-14.4-4.2-3.4-11-5.3-20.5-5.3zM88 95.7c-.5 3.6-1.8 6.4-3.8 8.4-2 1.9-5.6 2.9-10.7 2.9-5 0-8.3-.9-9.8-2.7-1.5-1.8-2-4.7-1.5-8.5.3-1.9.8-3.4 1.7-4.6.9-1.2 1.9-2.3 2.9-3.1 1.2-.9 2.5-1.6 3.8-2.1 1.9-.7 9.1-3.1 11.1-3.7h.1c1.9-.7 3.7-1.3 5.4-1.8.9-.2 1.8-.6 2.7-1.2h.1c.2-.1.3-.2.4-.3L88 95.7zM177 41.1c-1.6-2.2-4.1-4.1-7.6-5.7-3.5-1.6-8.5-2.4-15-2.4-6.4 0-11.7.8-15.6 2.4-3.9 1.6-7 3.5-9.3 5.7-2.2 2.2-3.8 4.5-4.5 6.7-.7 2.2-1.2 3.9-1.4 5.3l-9.3 67.3h15l9-65c.1-.8.4-1.7.8-2.8.4-1 1.1-1.9 2.2-2.8 1-.9 2.5-1.7 4.4-2.3 1.9-.7 4.3-1 7.1-1s5 .3 6.5 1c1.6.7 2.7 1.5 3.5 2.4.7.9 1.2 1.9 1.3 2.9.1 1.1.1 2.1 0 2.9l-8.9 64.7h15l9.3-67.3c.2-1.2.2-2.9.1-5.2-.1-2.3-1-4.6-2.6-6.8zM222.9 13.1h-15L205.1 33h-10.2l-1.8 12.8h10.2l-7.5 54.5c-.2 1.2-.2 2.9-.1 5.2.1 2.3 1 4.6 2.7 6.8 1.6 2.2 4.2 4.1 7.7 5.7 3.3 1.5 7.9 2.3 13.9 2.4h1.8l1.9-13.4h-1.8c-2.5 0-4.5-.4-6-1s-2.7-1.5-3.5-2.4c-.7-1-1.2-2-1.3-2.9-.1-1.1-.1-2 0-2.9l7.1-51.8h13.7l1.8-12.8H220l2.9-20.1zM284.9 33.2c-1.1-.1-2.1-.1-3.1-.1-1.3.1-2.8.1-4.7.1-6.5 0-11.7.8-15.6 2.4-3.9 1.6-7 3.5-9.2 5.7-2.2 2.2-3.7 4.5-4.4 6.8-.7 2.2-1.2 3.9-1.4 5.2l-9.3 67.1h15l8.9-64.4c.1-.9.4-1.9.8-2.9s1.1-1.9 2-2.9c1-.9 2.4-1.8 4.2-2.5 1.8-.7 4-1.1 6.8-1.1 1.2 0 2.2 0 3.1-.1.7 0 1.5-.1 2.4-.1h1.4l5.2-13.1-2.1-.1zM323.8 33c-4.8 0-9.1.5-12.7 1.5-3.6 1-6.7 2.5-9.3 4.3-2.6 1.8-4.6 4-6 6.4-1.4 2.4-2.3 5-2.7 7.8l-.6 4.6h15l.3-1.7c.5-2.5 1.7-4.7 3.5-6.5 2-2 5.5-3 10.6-3 2.6 0 4.7.3 6.3.8 1.6.6 2.8 1.3 3.7 2.2.9.9 1.4 1.8 1.6 2.8.3 1 .3 2 .2 3l-.4 3c-.2 1.2-.5 2.2-1.1 3-.6.9-1.2 1.7-1.9 2.4s-1.3 1.2-2 1.5c-.7.3-1.2.6-1.7.8-.5.1-1.6.5-3.3 1.1-1.8.6-3.9 1.4-6.3 2.1l-1 .3c-2.1.7-4.2 1.4-6.4 2.1-2.5.8-4.8 1.6-6.9 2.2-4.1 1.4-7.6 3.9-10.2 7.3-2.6 3.4-4.2 7.2-4.8 11.4l-1 7.5c-.3 2-.2 4.2.2 6.5.4 2.4 1.5 4.6 3.4 6.6 1.8 2 4.5 3.6 7.9 4.9 3.4 1.3 8 2 13.7 2 5.7 0 10.5-.7 14.2-2 3.8-1.3 6.9-3 9.2-4.9 2.4-2 4.1-4.2 5.2-6.6 1-2.3 1.7-4.5 2-6.5l6.5-47.2c.8-5.8-.8-10.5-4.8-14.4-4.1-3.4-10.9-5.3-20.4-5.3zm4.3 62.7c-.5 3.6-1.8 6.4-3.8 8.4-2 1.9-5.6 2.9-10.7 2.9-5 0-8.3-.9-9.8-2.7-1.5-1.8-2-4.7-1.5-8.5.3-1.9.8-3.4 1.7-4.6.9-1.2 1.9-2.3 2.9-3.1 1.2-.9 2.5-1.6 3.8-2.1 1.8-.6 3.7-1.3 5.7-1.9 1.7-.5 3.5-1.2 5.5-1.8 1.9-.7 3.7-1.3 5.4-1.8.9-.2 1.8-.6 2.7-1.2h.1c.2-.1.3-.2.5-.3l-2.5 16.7zM395 69.7c-1.3-.5-21.9-9.1-18.3-35.3l.2-1.8h-14.4l-.2 1.8c-2.7 19.4 4.5 31.7 11.1 38.6 7 7.4 14.8 10.3 15.2 10.4l.2.1c25.6 8.2 21.5 33.9 21.3 35l-.3 1.8 7.2.3v-.2h7.2l.3-1.8c.3-2.3 1.3-10.5-1.2-19.9-2.6-9.9-9.6-23-28.3-29zM436.1 34.4l.2-1.8h-14.4l-.2 1.8c-2 14.4-9.6 23.5-16.8 29 5 1.9 9.1 4.3 12.4 7.1 7.8-7.3 16.4-18.9 18.8-36.1zM380.6 90.4c-.3-.1-5.7-2.1-11.5-6.9-4.7 4.4-8.6 9.5-11.7 15.2-5 9.3-6.4 17.6-6.6 19.9l-.2 1.8H365l.2-1.9c.1-.7 1.9-16.9 16.3-27.8-.2-.1-.4-.1-.6-.2l-.3-.1z" fill="#064d8b"/><path d="M395.7 59.9c5.2 0 10.1-4.3 10.8-9.5.7-5.2-3-9.5-8.2-9.5-5.2 0-10.1 4.3-10.8 9.5-.7 5.2 2.9 9.5 8.2 9.5z" fill="#00c914"/></g></svg>