<?xml version="1.0" encoding="utf-8"?>
<!-- Generator: Adobe Illustrator 24.2.3, SVG Export Plug-In . SVG Version: 6.00 Build 0)  -->
<svg version="1.1" id="Layer_1" xmlns="http://www.w3.org/2000/svg" xmlns:xlink="http://www.w3.org/1999/xlink" x="0px" y="0px"
	 viewBox="0 0 1909.3 506.79" style="enable-background:new 0 0 1909.3 506.79;" xml:space="preserve">
<style type="text/css">
	.st0{fill:#FFFFFF;}
</style>
<g>
	<g>
		<path class="st0" d="M622.29,228.56h-25.55v52.35h-41.79V134.16h67.33c37.73,0,58.02,23.08,58.02,47.2
			S660.02,228.56,622.29,228.56z M620.38,166.52h-23.64v29.68h23.64c11.46,0,18.15-7.21,18.15-14.84
			C638.53,173.73,631.85,166.52,620.38,166.52z"/>
		<path class="st0" d="M790.62,280.91l-30.09-54.62h-14.09v54.62h-41.79V134.16H772c37.73,0,58.02,23.08,58.02,47.2
			c0,19.99-14.33,32.57-27.7,38.34l36.77,61.21H790.62z M770.09,166.52h-23.64v29.68h23.64c11.46,0,18.15-7.21,18.15-14.84
			C788.24,173.73,781.55,166.52,770.09,166.52z"/>
		<path class="st0" d="M860.34,280.91V134.16H975.9v32.15h-73.78v24.53h63.04v32.15h-63.04v25.76h73.78v32.15H860.34z"/>
		<path class="st0" d="M1072.84,228.56h-25.55v52.35h-41.79V134.16h67.33c37.73,0,58.02,23.08,58.02,47.2
			S1110.56,228.56,1072.84,228.56z M1070.92,166.52h-23.64v29.68h23.64c11.46,0,18.15-7.21,18.15-14.84
			C1089.07,173.73,1082.39,166.52,1070.92,166.52z"/>
	</g>
	<g>
		<path class="st0" d="M1216.65,282.99c-22.18,0-36.69-5.6-50.58-19.48l10.78-10.78c12.23,12.23,23.63,16.17,40.21,16.17
			c21.56,0,34.82-10.16,34.82-27.36c0-7.67-2.28-14.3-7.05-18.45c-4.77-4.15-8.5-5.39-19.28-7.05l-17.2-2.7
			c-11.61-1.86-20.73-5.6-27.15-11.19c-7.46-6.63-11.19-15.75-11.19-27.57c0-25.08,18.03-41.66,47.26-41.66
			c18.86,0,31.3,4.77,43.94,16.17l-10.16,10.16c-9.12-8.29-18.86-12.64-34.41-12.64c-19.69,0-31.09,10.99-31.09,27.36
			c0,7.25,2.07,13.06,6.63,17c4.56,3.94,12.23,6.84,19.9,8.08l16.17,2.49c13.89,2.07,20.73,4.97,26.95,10.36
			c8.08,6.84,12.44,17,12.44,29.23C1267.64,267.03,1247.32,282.99,1216.65,282.99z"/>
		<path class="st0" d="M1338.94,221.01h-39.18v60.73h-15.75V134.16h54.93c26.94,0,45.6,16.79,45.6,43.32
			S1365.89,221.01,1338.94,221.01z M1337.49,148.25h-37.72v58.66h37.72c18.45,0,31.3-9.95,31.3-29.43S1355.94,148.25,1337.49,148.25
			z"/>
		<path class="st0" d="M1481.75,267.65c-9.95,9.95-23.01,15.34-37.72,15.34c-14.72,0-27.78-5.39-37.73-15.34
			c-13.89-13.89-13.89-28.4-13.89-59.7s0-45.81,13.89-59.7c9.95-9.95,23.01-15.34,37.73-15.34c14.72,0,27.78,5.39,37.72,15.34
			c13.89,13.89,13.89,28.4,13.89,59.7S1495.64,253.76,1481.75,267.65z M1469.52,157.58c-6.43-6.63-15.75-10.57-25.49-10.57
			c-9.74,0-19.07,3.94-25.5,10.57c-9.33,9.53-10.36,19.48-10.36,50.37c0,30.88,1.04,40.83,10.36,50.37
			c6.43,6.63,15.75,10.57,25.5,10.57c9.74,0,19.07-3.94,25.49-10.57c9.33-9.53,10.36-19.48,10.36-50.37
			C1479.89,177.07,1478.85,167.12,1469.52,157.58z"/>
		<path class="st0" d="M1600.94,281.74l-33.58-65.5h-35.44v65.5h-15.75V134.16h56.59c25.7,0,43.74,15.55,43.74,41.04
			c0,21.56-13.06,35.65-32.13,39.59l35.03,66.95H1600.94z M1571.3,148.25h-39.38v54.1h39.38c17.2,0,29.43-8.91,29.43-26.95
			S1588.5,148.25,1571.3,148.25z"/>
		<path class="st0" d="M1678.87,148.25v133.49h-15.75V148.25h-42.7v-14.09h101.15v14.09H1678.87z"/>
		<path class="st0" d="M1770.49,282.99c-22.18,0-36.69-5.6-50.58-19.48l10.78-10.78c12.23,12.23,23.63,16.17,40.21,16.17
			c21.56,0,34.82-10.16,34.82-27.36c0-7.67-2.28-14.3-7.05-18.45c-4.77-4.15-8.5-5.39-19.28-7.05l-17.2-2.7
			c-11.61-1.86-20.73-5.6-27.15-11.19c-7.46-6.63-11.19-15.75-11.19-27.57c0-25.08,18.03-41.66,47.26-41.66
			c18.86,0,31.3,4.77,43.94,16.17l-10.16,10.16c-9.12-8.29-18.86-12.64-34.41-12.64c-19.69,0-31.09,10.99-31.09,27.36
			c0,7.25,2.07,13.06,6.63,17c4.56,3.94,12.23,6.84,19.9,8.08l16.17,2.49c13.89,2.07,20.73,4.97,26.95,10.36
			c8.08,6.84,12.44,17,12.44,29.23C1821.48,267.03,1801.17,282.99,1770.49,282.99z"/>
	</g>
	<g>
		<path class="st0" d="M582.26,364.71h-20.61v29.57h-6.04v-70.94h23.05c7.57,0,13.48,1.83,17.73,5.5c4.26,3.67,6.38,8.79,6.38,15.38
			c0,4.54-1.33,8.55-3.99,12.02c-2.66,3.47-6.24,5.87-10.72,7.2l17.73,30.21v0.63h-6.38L582.26,364.71z M561.65,359.64h18.37
			c5.03,0,9.08-1.43,12.13-4.29c3.05-2.86,4.58-6.57,4.58-11.13c0-5.01-1.59-8.9-4.77-11.66c-3.18-2.77-7.65-4.15-13.4-4.15h-16.91
			V359.64z"/>
		<path class="st0" d="M738.09,360.28h-33.18v28.94h38.15v5.07h-44.14v-70.94h43.9v5.07h-37.91v26.8h33.18V360.28z"/>
		<path class="st0" d="M885.73,372.16c-0.81,7.47-3.48,13.19-8.01,17.15c-4.53,3.96-10.57,5.94-18.1,5.94
			c-5.26,0-9.92-1.32-13.96-3.95c-4.04-2.63-7.17-6.36-9.38-11.18c-2.21-4.82-3.33-10.34-3.36-16.54v-9.21
			c0-6.3,1.1-11.89,3.31-16.76c2.21-4.87,5.38-8.63,9.53-11.28c4.14-2.65,8.91-3.97,14.3-3.97c7.6,0,13.6,2.05,18,6.14
			c4.4,4.09,6.96,9.76,7.67,17h-6.04c-1.49-12.05-8.04-18.08-19.64-18.08c-6.43,0-11.55,2.41-15.37,7.22
			c-3.82,4.81-5.73,11.46-5.73,19.94v8.68c0,8.19,1.86,14.73,5.58,19.6c3.72,4.88,8.75,7.31,15.08,7.31c6.27,0,10.99-1.5,14.18-4.51
			c3.18-3,5.15-7.51,5.9-13.52H885.73z"/>
		<path class="st0" d="M1006.63,364.71h-20.61v29.57h-6.04v-70.94h23.05c7.57,0,13.48,1.83,17.73,5.5
			c4.26,3.67,6.38,8.79,6.38,15.38c0,4.54-1.33,8.55-3.99,12.02c-2.66,3.47-6.24,5.87-10.72,7.2l17.73,30.21v0.63h-6.38
			L1006.63,364.71z M986.02,359.64h18.37c5.03,0,9.08-1.43,12.13-4.29c3.05-2.86,4.58-6.57,4.58-11.13c0-5.01-1.59-8.9-4.77-11.66
			c-3.18-2.77-7.65-4.15-13.4-4.15h-16.91V359.64z"/>
		<path class="st0" d="M1172.16,323.35v48.43c-0.03,4.78-1.09,8.93-3.17,12.47c-2.08,3.54-5.01,6.26-8.8,8.16
			c-3.78,1.9-8.13,2.85-13.03,2.85c-7.47,0-13.46-2.04-17.95-6.11c-4.5-4.08-6.83-9.72-6.99-16.93v-48.87h5.94v47.99
			c0,5.98,1.71,10.61,5.12,13.91c3.41,3.3,8.04,4.94,13.89,4.94c5.84,0,10.47-1.66,13.86-4.97c3.39-3.31,5.09-7.93,5.09-13.84
			v-48.04H1172.16z"/>
		<path class="st0" d="M1276.01,394.28h-5.99v-70.94h5.99V394.28z"/>
		<path class="st0" d="M1421.8,328.41h-24.31v65.87h-5.99v-65.87h-24.26v-5.07h54.57V328.41z"/>
		<path class="st0" d="M1520.39,394.28h-5.99v-70.94h5.99V394.28z"/>
		<path class="st0" d="M1672.27,394.28h-5.99l-40.78-60.71v60.71h-6.04v-70.94h6.04l40.83,60.76v-60.76h5.94V394.28z"/>
		<path class="st0" d="M1821.33,385.86c-2.08,2.96-5.33,5.26-9.77,6.92c-4.43,1.66-9.4,2.49-14.88,2.49c-5.55,0-10.49-1.33-14.81-4
			c-4.32-2.66-7.67-6.43-10.04-11.3c-2.37-4.87-3.58-10.46-3.61-16.76v-8.96c0-9.84,2.48-17.61,7.45-23.31
			c4.97-5.7,11.64-8.55,20.02-8.55c7.31,0,13.19,1.86,17.64,5.58c4.45,3.72,7.1,8.84,7.94,15.37h-5.99c-0.88-5.21-3-9.16-6.36-11.85
			c-3.36-2.69-7.76-4.03-13.18-4.03c-6.63,0-11.87,2.36-15.74,7.07c-3.86,4.71-5.8,11.36-5.8,19.94v8.39
			c0,5.4,0.92,10.17,2.75,14.31c1.83,4.14,4.47,7.35,7.89,9.63c3.43,2.28,7.37,3.41,11.82,3.41c5.16,0,9.6-0.81,13.3-2.44
			c2.4-1.07,4.19-2.32,5.36-3.75v-18.32h-19.05v-5.07h25.04V385.86z"/>
	</g>
</g>
<g>
	<g>
		<path class="st0" d="M359.38,312.31H304.6c-16.93,0-30.65-13.72-30.65-30.65c0-16.93,13.72-30.65,30.65-30.65h54.79
			c18.39,0,31.5-3.95,38.96-11.75c12.05-12.58,11.01-36.49,10.52-47.97c-0.11-2.4-0.19-4.47-0.19-6.45
			c0-30.68-21.53-48.28-59.08-48.28l-150.52,0.68c-0.05,0-0.11,0-0.16,0c-16.85,0-30.55-13.61-30.64-30.49
			c-0.09-16.93,13.56-30.72,30.49-30.81l150.68-0.68c36.09,0,66.56,10.87,88.27,31.45c20.81,19.72,32.27,47.47,32.27,78.13
			c0,0.98,0.07,2.26,0.14,3.8c0.8,18.42,2.66,61.54-27.49,93.02C423.14,302,395.14,312.31,359.38,312.31z"/>
	</g>
	<g>
		<path class="st0" d="M129.47,452.91l-11.53-0.12c-23.84-0.33-32.4-18.63-32.33-30.86c0.1-18.92,15.86-30.37,31.04-30.49l2.37-0.01
			c2.02,0,5.24,0,10.07,0.02c22.88,0.02,32.08,0.94,34.21-5.55c0.47-1.91,0.5-6.28,0.53-13.88V255.91
			c0-35.25,13.78-94.39,106.05-94.39h70.58c16.93,0,30.65,13.72,30.65,30.65s-13.72,30.65-30.65,30.65h-70.58
			c-38.06,0-44.76,10.67-44.76,33.1v116.12c0,15.19,0,40.62-18.47,59.04c-19.01,18.96-49.25,21.67-76.56,21.67
			c-0.21,0-0.42,0-0.63,0L129.47,452.91z"/>
	</g>
</g>
<g>
	<path class="st0" d="M494.13-716.97h-20.24v41.48h-33.11v-116.29h53.36c29.9,0,45.98,18.29,45.98,37.4
		C540.11-735.26,524.02-716.97,494.13-716.97z M492.61-766.13h-18.73v23.52h18.73c9.08,0,14.38-5.72,14.38-11.76
		C506.99-760.41,501.7-766.13,492.61-766.13z"/>
	<path class="st0" d="M627.51-675.48l-23.84-43.28h-11.16v43.28H559.4v-116.29h53.36c29.9,0,45.98,18.29,45.98,37.4
		c0,15.84-11.35,25.8-21.95,30.38l29.14,48.51H627.51z M611.24-766.13h-18.73v23.52h18.73c9.08,0,14.38-5.72,14.38-11.76
		C625.62-760.41,620.33-766.13,611.24-766.13z"/>
	<path class="st0" d="M682.76-675.48v-116.29h91.58v25.48h-58.47v19.44h49.95v25.48h-49.95v20.42h58.47v25.48H682.76z"/>
	<path class="st0" d="M851.14-716.97H830.9v41.48h-33.11v-116.29h53.36c29.9,0,45.98,18.29,45.98,37.4
		C897.12-735.26,881.04-716.97,851.14-716.97z M849.63-766.13H830.9v23.52h18.73c9.08,0,14.38-5.72,14.38-11.76
		C864.01-760.41,858.71-766.13,849.63-766.13z"/>
</g>
<g>
	<path class="st0" d="M965.1-673.84c-17.57,0-29.07-4.43-40.08-15.44l8.54-8.54c9.69,9.69,18.72,12.81,31.86,12.81
		c17.08,0,27.6-8.05,27.6-21.68c0-6.08-1.81-11.33-5.59-14.62c-3.78-3.28-6.73-4.27-15.27-5.58l-13.63-2.14
		c-9.2-1.48-16.43-4.43-21.52-8.87c-5.91-5.26-8.87-12.48-8.87-21.85c0-19.87,14.29-33.01,37.45-33.01
		c14.95,0,24.8,3.78,34.82,12.81l-8.05,8.05c-7.23-6.57-14.95-10.02-27.26-10.02c-15.6,0-24.64,8.71-24.64,21.68
		c0,5.75,1.64,10.35,5.26,13.47c3.61,3.12,9.69,5.42,15.77,6.41l12.81,1.97c11,1.64,16.43,3.94,21.35,8.21
		c6.41,5.42,9.86,13.47,9.86,23.16C1005.51-686.49,989.41-673.84,965.1-673.84z"/>
	<path class="st0" d="M1062.01-722.95h-31.04v48.13h-12.48v-116.95h43.53c21.35,0,36.13,13.3,36.13,34.33
		C1098.14-736.42,1083.36-722.95,1062.01-722.95z M1060.86-780.6h-29.89v46.48h29.89c14.62,0,24.8-7.88,24.8-23.32
		C1085.66-772.88,1075.48-780.6,1060.86-780.6z"/>
	<path class="st0" d="M1175.17-685.99c-7.88,7.88-18.23,12.15-29.89,12.15c-11.66,0-22.01-4.27-29.89-12.15c-11-11-11-22.5-11-47.3
		s0-36.3,11-47.3c7.88-7.88,18.23-12.15,29.89-12.15c11.66,0,22.01,4.27,29.89,12.15c11,11,11,22.5,11,47.3
		S1186.18-697,1175.17-685.99z M1165.48-773.21c-5.09-5.26-12.48-8.38-20.2-8.38c-7.72,0-15.11,3.12-20.2,8.38
		c-7.39,7.56-8.21,15.44-8.21,39.91c0,24.47,0.82,32.36,8.21,39.91c5.09,5.26,12.48,8.38,20.2,8.38c7.72,0,15.11-3.12,20.2-8.38
		c7.39-7.56,8.21-15.44,8.21-39.91C1173.7-757.77,1172.88-765.65,1165.48-773.21z"/>
	<path class="st0" d="M1269.62-674.82l-26.61-51.9h-28.09v51.9h-12.48v-116.95h44.84c20.37,0,34.66,12.32,34.66,32.52
		c0,17.08-10.35,28.25-25.46,31.37l27.76,53.05H1269.62z M1246.13-780.6h-31.21v42.87h31.21c13.63,0,23.32-7.06,23.32-21.35
		C1269.46-773.37,1259.76-780.6,1246.13-780.6z"/>
	<path class="st0" d="M1331.37-780.6v105.78h-12.48V-780.6h-33.83v-11.17h80.15v11.17H1331.37z"/>
	<path class="st0" d="M1403.97-673.84c-17.57,0-29.07-4.43-40.08-15.44l8.54-8.54c9.69,9.69,18.72,12.81,31.86,12.81
		c17.08,0,27.6-8.05,27.6-21.68c0-6.08-1.81-11.33-5.59-14.62c-3.78-3.28-6.73-4.27-15.27-5.58l-13.63-2.14
		c-9.2-1.48-16.43-4.43-21.52-8.87c-5.91-5.26-8.87-12.48-8.87-21.85c0-19.87,14.29-33.01,37.45-33.01
		c14.95,0,24.8,3.78,34.82,12.81l-8.05,8.05c-7.23-6.57-14.95-10.02-27.26-10.02c-15.6,0-24.64,8.71-24.64,21.68
		c0,5.75,1.64,10.35,5.26,13.47c3.61,3.12,9.69,5.42,15.77,6.41l12.81,1.97c11,1.64,16.43,3.94,21.35,8.21
		c6.41,5.42,9.86,13.47,9.86,23.16C1444.38-686.49,1428.28-673.84,1403.97-673.84z"/>
</g>
<g>
	<path class="st0" d="M462.4-609.08h-16.33v23.44h-4.79v-56.21h18.26c6,0,10.68,1.45,14.05,4.36c3.37,2.9,5.06,6.97,5.06,12.19
		c0,3.6-1.06,6.77-3.17,9.52c-2.11,2.75-4.94,4.65-8.49,5.71l14.05,23.94v0.5h-5.06L462.4-609.08z M446.07-613.09h14.56
		c3.99,0,7.19-1.13,9.61-3.4c2.42-2.27,3.63-5.21,3.63-8.82c0-3.97-1.26-7.05-3.78-9.24c-2.52-2.19-6.06-3.29-10.62-3.29h-13.4
		V-613.09z"/>
	<path class="st0" d="M585.88-612.59h-26.29v22.93h30.23v4.02h-34.98v-56.21h34.79v4.01h-30.04v21.23h26.29V-612.59z"/>
	<path class="st0" d="M702.88-603.17c-0.64,5.92-2.76,10.45-6.35,13.59c-3.59,3.14-8.37,4.71-14.34,4.71
		c-4.17,0-7.86-1.04-11.06-3.13c-3.2-2.09-5.68-5.04-7.43-8.86c-1.75-3.82-2.64-8.19-2.66-13.11v-7.3c0-4.99,0.87-9.42,2.62-13.28
		c1.75-3.86,4.27-6.84,7.55-8.94c3.28-2.1,7.06-3.15,11.33-3.15c6.02,0,10.78,1.62,14.27,4.86c3.49,3.24,5.51,7.74,6.08,13.47h-4.79
		c-1.18-9.55-6.37-14.32-15.56-14.32c-5.1,0-9.16,1.91-12.18,5.72c-3.03,3.81-4.54,9.08-4.54,15.8v6.88
		c0,6.49,1.47,11.67,4.42,15.53s6.93,5.8,11.95,5.8c4.97,0,8.71-1.19,11.23-3.57c2.52-2.38,4.08-5.95,4.67-10.71H702.88z"/>
	<path class="st0" d="M798.68-609.08h-16.33v23.44h-4.79v-56.21h18.26c6,0,10.68,1.45,14.05,4.36c3.37,2.9,5.06,6.97,5.06,12.19
		c0,3.6-1.06,6.77-3.17,9.52c-2.11,2.75-4.94,4.65-8.49,5.71l14.05,23.94v0.5h-5.06L798.68-609.08z M782.35-613.09h14.56
		c3.99,0,7.19-1.13,9.61-3.4c2.42-2.27,3.63-5.21,3.63-8.82c0-3.97-1.26-7.05-3.78-9.24c-2.52-2.19-6.06-3.29-10.62-3.29h-13.4
		V-613.09z"/>
	<path class="st0" d="M929.85-641.86v38.38c-0.03,3.78-0.86,7.08-2.51,9.88c-1.65,2.81-3.97,4.96-6.97,6.47
		c-3,1.51-6.44,2.26-10.33,2.26c-5.92,0-10.66-1.62-14.23-4.84c-3.57-3.23-5.41-7.7-5.54-13.42v-38.72h4.71v38.03
		c0,4.74,1.35,8.41,4.05,11.02c2.7,2.61,6.37,3.92,11,3.92c4.63,0,8.29-1.31,10.98-3.94c2.69-2.63,4.03-6.28,4.03-10.96v-38.07
		H929.85z"/>
	<path class="st0" d="M1012.14-585.64h-4.75v-56.21h4.75V-585.64z"/>
	<path class="st0" d="M1127.67-637.84h-19.27v52.2h-4.75v-52.2h-19.23v-4.01h43.24V-637.84z"/>
	<path class="st0" d="M1205.79-585.64h-4.75v-56.21h4.75V-585.64z"/>
	<path class="st0" d="M1326.14-585.64h-4.75l-32.31-48.11v48.11h-4.79v-56.21h4.79l32.35,48.14v-48.14h4.71V-585.64z"/>
	<path class="st0" d="M1444.26-592.32c-1.65,2.34-4.23,4.17-7.74,5.48c-3.51,1.31-7.44,1.97-11.79,1.97c-4.4,0-8.31-1.06-11.74-3.17
		c-3.42-2.11-6.07-5.1-7.95-8.96c-1.88-3.86-2.83-8.29-2.86-13.28v-7.1c0-7.8,1.97-13.96,5.91-18.47c3.94-4.52,9.23-6.78,15.87-6.78
		c5.79,0,10.45,1.47,13.98,4.42c3.53,2.95,5.62,7.01,6.29,12.18h-4.75c-0.7-4.13-2.38-7.26-5.04-9.39c-2.66-2.13-6.15-3.2-10.44-3.2
		c-5.25,0-9.41,1.87-12.47,5.6c-3.06,3.74-4.59,9-4.59,15.8v6.65c0,4.28,0.73,8.06,2.18,11.34c1.45,3.28,3.54,5.83,6.25,7.63
		c2.72,1.8,5.84,2.7,9.36,2.7c4.09,0,7.6-0.64,10.54-1.93c1.9-0.85,3.32-1.84,4.25-2.97v-14.52h-15.1v-4.02h19.84V-592.32z"/>
</g>
<g>
	<g>
		<path class="st0" d="M1092.03-1064.71h-72.47c-22.39,0-40.54-18.15-40.54-40.54c0-22.39,18.15-40.54,40.54-40.54h72.47
			c24.32,0,41.66-5.23,51.54-15.54c15.93-16.64,14.57-48.26,13.91-63.46c-0.14-3.17-0.26-5.91-0.26-8.53
			c0-40.58-28.48-63.86-78.15-63.86l-199.09,0.9c-0.07,0-0.14,0-0.22,0c-22.29,0-40.41-18.01-40.53-40.32
			c-0.12-22.39,17.94-40.63,40.33-40.75l199.3-0.9c47.74,0,88.03,14.38,116.75,41.59c27.53,26.08,42.68,62.78,42.68,103.34
			c0,1.29,0.09,2.99,0.18,5.03c1.05,24.36,3.52,81.4-36.35,123.03C1176.36-1078.34,1139.32-1064.71,1092.03-1064.71z"/>
	</g>
	<g>
		<path class="st0" d="M787.93-878.73l-15.24-0.15c-31.53-0.43-42.85-24.65-42.76-40.81c0.14-25.03,20.98-40.16,41.05-40.33
			l3.14-0.01c2.67,0,6.93,0,13.32,0.02c30.26,0.03,42.43,1.24,45.25-7.34c0.62-2.53,0.66-8.3,0.71-18.35v-153.59
			c0-46.63,18.22-124.85,140.27-124.85h93.35c22.39,0,40.54,18.15,40.54,40.54c0,22.39-18.15,40.54-40.54,40.54h-93.35
			c-50.34,0-59.2,14.12-59.2,43.78v153.59c0,20.1,0,53.73-24.44,78.1c-25.15,25.08-65.14,28.67-101.26,28.67c-0.28,0-0.55,0-0.83,0
			L787.93-878.73z"/>
	</g>
</g>
</svg>
