<?xml version="1.0" standalone="no"?>
<!DOCTYPE svg PUBLIC "-//W3C//DTD SVG 20010904//EN"
 "http://www.w3.org/TR/2001/REC-SVG-20010904/DTD/svg10.dtd">
<svg version="1.0" xmlns="http://www.w3.org/2000/svg"
 width="100.000000pt" height="100.000000pt" viewBox="0 0 100.000000 100.000000"
 preserveAspectRatio="xMidYMid meet">
<metadata>
Created by potrace 1.11, written by Peter Selinger 2001-2013
</metadata>
<g transform="translate(0.000000,100.000000) scale(0.100000,-0.100000)"
fill="#000000" stroke="none">
<path d="M248 892 c-30 -4 -33 -16 -28 -116 7 -154 90 -269 244 -340 127 -59
174 -124 185 -255 l6 -75 55 1 c30 1 59 2 64 2 13 1 0 180 -16 221 -41 106
-95 160 -214 219 -45 22 -96 54 -114 71 -50 49 -80 124 -80 203 0 37 -4 68
-10 68 -26 3 -67 4 -92 1z"/>
<path d="M774 892 c-17 -2 -23 -13 -28 -43 -9 -57 -59 -150 -100 -190 -20 -18
-36 -36 -36 -39 0 -3 24 -18 54 -34 l54 -29 26 29 c45 50 84 117 111 187 25
66 32 116 18 118 -50 3 -82 4 -99 1z"/>
<path d="M480 793 c-49 -45 -46 -103 7 -131 34 -19 60 -14 93 16 41 37 48 79
20 115 -29 37 -79 37 -120 0z"/>
<path d="M258 412 c-67 -72 -120 -178 -133 -263 l-7 -44 57 1 c31 1 60 5 64
10 4 5 13 29 20 54 19 65 43 108 91 163 25 28 36 47 27 47 -8 0 -32 13 -54 29
l-41 29 -24 -26z"/>
</g>
</svg>
