<?xml version="1.0" standalone="no"?>
<!DOCTYPE svg PUBLIC "-//W3C//DTD SVG 20010904//EN"
 "http://www.w3.org/TR/2001/REC-SVG-20010904/DTD/svg10.dtd">
<svg version="1.0" xmlns="http://www.w3.org/2000/svg"
 width="500.000000pt" height="500.000000pt" viewBox="0 0 500.000000 500.000000"
 preserveAspectRatio="xMidYMid meet">
<metadata>
Created by potrace 1.16, written by Peter Selinger 2001-2019
</metadata>
<g transform="translate(0.000000,500.000000) scale(0.100000,-0.100000)"
fill="#000000" stroke="none">
<path d="M625 4278 c-86 -44 -125 -106 -132 -208 -4 -57 -2 -71 24 -117 20
-38 244 -273 803 -844 426 -435 779 -798 784 -807 7 -12 -8 -32 -65 -86 -41
-38 -273 -265 -517 -504 -243 -239 -444 -433 -447 -431 -2 3 9 24 24 48 40 60
55 119 49 194 -12 152 -128 257 -283 257 -151 0 -275 -109 -342 -302 -97 -277
31 -593 290 -717 96 -46 161 -61 262 -61 98 0 164 15 255 57 72 33 91 50 480
442 408 409 680 671 699 671 11 0 327 -312 788 -780 286 -289 331 -326 452
-367 80 -27 213 -30 311 -7 268 63 450 295 450 574 0 194 -112 400 -252 465
-106 50 -245 26 -326 -55 -60 -60 -77 -104 -77 -205 0 -92 9 -120 61 -193 9
-12 13 -22 9 -22 -10 0 -839 815 -942 927 l-91 98 417 426 c1111 1135 1148
1175 1175 1227 39 76 36 151 -7 222 -17 30 -51 68 -75 85 -38 26 -54 30 -123
34 -71 3 -83 1 -126 -25 -28 -15 -189 -166 -378 -353 -871 -860 -1265 -1242
-1278 -1239 -8 2 -371 353 -807 781 -527 517 -810 788 -844 808 -65 37 -158
40 -221 7z m647 -680 c288 -282 649 -637 803 -788 l281 -275 -45 -47 -44 -47
-88 80 c-100 92 -1477 1498 -1491 1524 -13 21 16 65 42 65 12 0 211 -188 542
-512z m3034 488 c10 -16 12 -30 7 -40 -8 -15 -1232 -1270 -1780 -1825 l-292
-296 -53 52 -53 53 50 51 c28 28 504 496 1058 1040 634 622 1015 989 1027 989
11 0 27 -11 36 -24z m-1499 -1997 l52 -55 -52 -51 -52 -51 -59 54 -60 55 54
54 c30 30 57 54 60 53 3 -2 29 -28 57 -59z m-957 -454 l54 -54 -20 -23 c-10
-12 -139 -146 -286 -298 -278 -287 -329 -329 -430 -356 -72 -19 -125 -18 -197
5 -154 48 -254 159 -282 314 -9 50 -9 79 -1 123 23 114 94 224 155 239 60 16
127 -45 112 -103 -3 -14 -19 -44 -36 -68 -64 -93 -61 -188 7 -264 64 -70 150
-86 238 -45 22 10 164 142 328 302 159 155 293 283 297 283 3 0 31 -25 61 -55z
m1661 -232 c295 -287 339 -322 404 -323 113 0 215 97 215 206 0 31 -26 100
-50 135 -48 67 -44 126 9 154 49 25 77 19 122 -26 78 -78 121 -214 101 -322
-31 -164 -140 -282 -302 -323 -85 -22 -164 -13 -250 27 -58 27 -93 59 -328
297 -144 147 -279 286 -299 310 l-36 43 54 55 c29 29 56 54 60 54 4 0 139
-129 300 -287z"/>
<path d="M2370 4081 c-69 -22 -124 -57 -176 -112 -85 -91 -119 -185 -112 -314
8 -154 94 -282 237 -353 72 -36 79 -37 181 -37 102 0 109 1 181 37 145 72 228
197 236 356 4 72 1 98 -17 151 -33 99 -104 188 -190 238 -89 53 -236 68 -340
34z m189 -181 c132 -37 204 -198 143 -316 -30 -58 -94 -110 -153 -124 -160
-39 -313 124 -266 282 38 122 159 192 276 158z"/>
</g>
</svg>
