<?xml version="1.0" standalone="no"?>
<!DOCTYPE svg PUBLIC "-//W3C//DTD SVG 20010904//EN"
 "http://www.w3.org/TR/2001/REC-SVG-20010904/DTD/svg10.dtd">
<svg version="1.0" xmlns="http://www.w3.org/2000/svg"
 width="500.000000pt" height="500.000000pt" viewBox="0 0 500.000000 500.000000"
 preserveAspectRatio="xMidYMid meet">
<metadata>
Created by potrace 1.16, written by Peter Selinger 2001-2019
</metadata>
<g transform="translate(0.000000,500.000000) scale(0.100000,-0.100000)"
fill="#000000" stroke="none">
<path d="M383 4224 c4 -87 10 -212 14 -276 l6 -116 45 -12 c69 -17 427 -144
612 -217 189 -74 465 -206 527 -251 l41 -31 4 -143 c4 -164 19 -212 95 -305
26 -32 43 -63 43 -79 0 -37 -42 -198 -96 -365 -25 -79 -48 -146 -49 -148 -2
-1 -36 3 -75 10 -226 40 -443 -116 -480 -345 -28 -179 65 -358 229 -439 63
-31 70 -32 188 -32 l123 0 0 -427 0 -428 174 0 173 0 112 562 c61 310 118 577
125 593 7 17 84 143 171 280 l158 250 88 284 c49 156 90 285 91 286 2 1 401
181 888 399 487 219 894 404 905 411 16 10 31 60 74 239 30 124 52 228 49 232
-4 3 -442 -118 -975 -270 l-968 -275 -120 59 c-128 63 -432 169 -1045 365
-356 114 -1050 328 -1104 341 l-29 7 6 -159z m429 -135 c767 -236 1532 -490
1663 -554 246 -118 298 -249 163 -408 -38 -45 -48 -73 -147 -395 l-106 -347
-170 -270 -170 -271 -109 -537 -110 -537 -33 0 -33 0 0 396 0 397 36 40 c20
22 50 69 68 106 29 61 31 74 31 172 0 101 -1 108 -37 180 -20 40 -50 87 -66
102 l-29 28 62 192 c61 185 105 371 105 442 0 51 -17 85 -65 135 -24 25 -51
62 -60 84 -23 54 -29 157 -16 251 l12 80 -55 50 c-129 119 -485 284 -998 462
l-198 68 0 61 c0 34 -3 82 -6 108 -4 25 -4 46 -1 46 3 0 124 -36 269 -81z
m3595 -161 c-2 -7 -10 -38 -17 -70 l-13 -56 -776 -350 c-427 -192 -777 -348
-779 -347 -1 1 8 24 20 51 34 75 32 190 -5 268 -15 32 -26 60 -25 61 4 3 1581
453 1592 454 4 1 6 -5 3 -11z m-2840 -1801 c106 -39 175 -136 175 -245 0 -71
-18 -117 -68 -172 -73 -80 -174 -108 -275 -75 -99 33 -179 142 -179 245 0 109
83 218 190 251 38 11 121 9 157 -4z"/>
</g>
</svg>
