<?xml version="1.0" standalone="no"?>
<!DOCTYPE svg PUBLIC "-//W3C//DTD SVG 20010904//EN"
 "http://www.w3.org/TR/2001/REC-SVG-20010904/DTD/svg10.dtd">
<svg version="1.0" xmlns="http://www.w3.org/2000/svg"
 width="500.000000pt" height="500.000000pt" viewBox="0 0 500.000000 500.000000"
 preserveAspectRatio="xMidYMid meet">
<metadata>
Created by potrace 1.16, written by Peter Selinger 2001-2019
</metadata>
<g transform="translate(0.000000,500.000000) scale(0.100000,-0.100000)"
fill="#000000" stroke="none">
<path d="M3320 4103 c-29 -28 -96 -166 -807 -1678 -129 -275 -244 -509 -254
-520 -19 -19 -36 -20 -592 -25 -496 -4 -577 -7 -607 -21 -62 -28 -112 -95
-164 -218 -54 -128 -56 -165 -11 -210 l25 -26 661 -5 660 -5 -31 -30 c-40 -38
-60 -76 -60 -114 0 -49 90 -303 118 -333 38 -42 84 -53 207 -52 264 2 641 136
798 283 91 85 96 121 38 294 -48 142 -70 179 -117 202 -109 51 -398 15 -643
-81 -47 -19 -86 -34 -87 -34 -1 0 255 541 568 1203 314 661 572 1216 575 1233
9 54 -19 91 -100 130 -90 43 -135 44 -177 7z m122 -111 l37 -17 -549 -1160
c-301 -638 -560 -1181 -574 -1208 -42 -76 -68 -87 -219 -87 l-128 0 63 123 63
122 75 5 c105 7 130 25 184 130 24 47 258 541 521 1098 263 556 481 1012 484
1011 3 0 23 -8 43 -17z m-2267 -2344 l-64 -123 -70 -3 -70 -3 40 88 c22 48 48
98 57 111 21 27 82 51 134 52 l37 0 -64 -122z m763 0 l-63 -123 -312 -3 c-172
-1 -313 0 -313 3 0 10 93 190 112 218 l19 27 310 0 310 0 -63 -122z m1196
-108 c14 -14 -16 -43 -98 -97 -165 -111 -492 -213 -675 -213 -116 0 -127 20
-46 82 136 104 411 208 621 237 77 11 183 6 198 -9z m-160 -337 c10 -32 21
-64 23 -71 6 -15 -85 -58 -97 -45 -4 4 -17 36 -28 70 l-20 61 46 21 c26 11 50
20 53 21 3 0 13 -26 23 -57z m-144 -69 c12 -36 18 -69 14 -74 -13 -12 -143
-49 -230 -66 -81 -15 -241 -19 -261 -6 -10 6 -53 111 -53 129 0 1 38 3 85 3
90 0 242 26 340 58 33 11 65 20 72 21 6 1 21 -29 33 -65z"/>
</g>
</svg>
