<?xml version="1.0" standalone="no"?>
<!DOCTYPE svg PUBLIC "-//W3C//DTD SVG 20010904//EN"
 "http://www.w3.org/TR/2001/REC-SVG-20010904/DTD/svg10.dtd">
<svg version="1.0" xmlns="http://www.w3.org/2000/svg"
 width="500.000000pt" height="500.000000pt" viewBox="0 0 500.000000 500.000000"
 preserveAspectRatio="xMidYMid meet">
<metadata>
Created by potrace 1.16, written by Peter Selinger 2001-2019
</metadata>
<g transform="translate(0.000000,500.000000) scale(0.100000,-0.100000)"
fill="#000000" stroke="none">
<path d="M2541 3970 c-153 -40 -259 -107 -388 -244 -75 -78 -192 -238 -208
-283 -3 -10 -53 -48 -110 -85 l-104 -67 31 -70 c27 -59 36 -71 56 -71 18 0 22
-4 18 -17 -3 -10 -17 -56 -31 -102 -39 -122 -36 -158 24 -379 l53 -192 -21
-43 c-25 -51 -27 -111 -6 -192 18 -69 67 -164 101 -196 52 -49 202 -31 344 41
30 16 115 77 189 137 252 205 204 179 558 297 175 58 332 115 349 125 34 21
74 92 74 133 0 14 21 70 46 124 25 55 62 146 81 204 32 92 37 120 41 231 5
141 -7 201 -60 301 -90 169 -320 306 -592 353 -129 22 -350 19 -445 -5z m364
-81 c271 -33 515 -170 595 -333 80 -163 60 -341 -72 -619 -28 -60 -53 -128
-56 -152 -2 -24 -13 -53 -23 -63 -11 -12 -142 -61 -341 -127 -178 -60 -336
-117 -353 -129 -16 -11 -99 -77 -183 -146 -84 -69 -178 -139 -209 -157 -75
-42 -205 -78 -232 -63 -33 17 -83 131 -88 204 l-6 65 89 26 c49 14 127 38 174
53 l85 27 42 70 c68 112 150 283 183 379 64 191 28 289 -116 311 -21 4 -151
10 -289 13 l-250 7 80 51 c71 44 85 58 114 113 45 85 136 204 213 277 178 171
364 227 643 193z m-787 -751 c-3 -7 -15 -43 -27 -80 -12 -36 -27 -71 -34 -76
-11 -9 -177 -35 -183 -29 -2 2 11 47 28 100 l32 97 94 0 c71 0 93 -3 90 -12z
m298 -10 c29 -14 40 -46 27 -85 -9 -27 -13 -28 -109 -40 -54 -6 -115 -12 -136
-12 l-36 -1 26 81 27 81 88 -6 c48 -4 99 -12 113 -18z m-42 -280 c-20 -46 -38
-88 -40 -94 -5 -11 -162 -39 -171 -30 -3 3 -8 43 -10 89 l-6 84 104 13 c57 6
111 13 119 15 8 1 20 3 27 4 7 1 -2 -32 -23 -81z m-310 5 c3 -21 6 -61 6 -90
0 -64 -14 -74 -103 -76 l-61 -2 -19 83 c-11 46 -16 86 -13 90 4 3 44 12 89 18
45 6 85 12 88 13 4 0 9 -16 13 -36z"/>
<path d="M2700 3797 c0 -2 7 -25 16 -51 20 -58 38 -66 141 -66 l75 0 -7 38
c-14 76 -24 82 -130 82 -52 0 -95 -1 -95 -3z"/>
<path d="M2437 3712 c-67 -44 -87 -62 -87 -80 0 -12 8 -26 17 -29 14 -5 164
39 193 57 8 5 -17 90 -31 104 -3 3 -44 -21 -92 -52z"/>
<path d="M3067 2847 c-97 -27 -132 -63 -86 -87 26 -14 224 33 253 60 54 51
-31 65 -167 27z"/>
<path d="M770 2773 c-65 -22 -143 -77 -196 -137 -51 -58 -115 -184 -135 -266
-22 -88 -16 -233 11 -305 78 -204 208 -260 475 -205 159 33 205 29 390 -35
136 -47 169 -55 221 -53 59 2 62 1 96 -35 39 -41 49 -44 68 -21 11 13 10 23
-9 62 l-23 47 22 -20 c12 -11 42 -46 67 -77 54 -70 83 -78 83 -20 -1 27 -11
52 -41 92 l-39 55 37 3 c51 5 98 -9 306 -85 109 -41 173 -69 165 -74 -7 -4
-276 -103 -598 -220 -322 -116 -593 -219 -602 -227 -12 -10 -18 -29 -18 -54 0
-51 30 -67 95 -50 50 13 568 200 1402 506 326 119 577 206 597 206 67 0 69 -6
20 -72 -52 -71 -57 -104 -17 -114 20 -5 30 -3 37 11 6 10 29 41 51 68 47 59
72 74 50 30 -7 -15 -11 -40 -8 -55 4 -24 8 -26 29 -17 14 5 35 21 48 36 22 26
28 27 93 25 60 -3 81 2 158 33 197 79 283 90 445 54 123 -27 255 -23 317 9
124 65 192 221 179 414 -10 151 -73 285 -183 388 -81 76 -158 113 -243 118
-124 7 -205 -34 -304 -157 -148 -183 -181 -207 -394 -282 -144 -51 -166 -68
-234 -191 -83 -149 -94 -160 -194 -197 -334 -123 -508 -181 -528 -175 -11 3
-146 51 -298 106 l-278 100 -61 97 c-33 53 -73 117 -89 143 -16 26 -39 54 -52
62 -14 9 -86 38 -162 65 -164 58 -229 100 -305 195 -149 186 -222 236 -340
236 -36 -1 -86 -8 -111 -17z m219 -118 c23 -15 73 -68 112 -116 130 -164 199
-211 404 -279 121 -41 139 -51 160 -97 52 -110 -42 -293 -152 -293 -18 0 -95
23 -171 51 -175 66 -253 73 -423 38 -127 -25 -212 -29 -249 -9 -147 75 -190
303 -95 505 35 74 120 164 192 204 51 28 66 31 119 28 49 -2 71 -9 103 -32z
m3204 14 c129 -67 227 -205 256 -365 20 -107 -32 -275 -101 -328 -63 -47 -109
-51 -267 -22 -221 41 -258 37 -480 -43 -143 -51 -181 -53 -225 -8 -41 40 -78
136 -79 205 -2 77 26 100 186 157 208 73 241 96 377 258 108 129 162 167 237
167 35 0 68 -7 96 -21z"/>
<path d="M872 2643 c3 -25 -1 -28 -41 -37 -30 -6 -53 -6 -73 2 -26 10 -31 9
-35 -7 -2 -9 -22 -28 -44 -41 -61 -38 -51 -61 18 -41 37 11 52 2 82 -49 27
-45 27 -46 -10 -59 -57 -20 -75 -14 -110 34 -37 51 -46 55 -55 20 -4 -16 1
-34 16 -55 12 -17 21 -32 19 -34 -2 -1 -19 -8 -37 -16 -31 -12 -60 -46 -48
-57 3 -3 19 0 37 6 60 21 84 15 114 -30 15 -23 23 -45 18 -49 -4 -4 -29 -14
-54 -23 l-47 -15 -28 39 c-46 61 -70 47 -41 -24 8 -19 11 -40 6 -52 -12 -31
-11 -35 13 -35 12 0 38 -18 61 -42 40 -42 40 -42 18 -56 -35 -24 -26 -42 19
-42 23 0 52 -7 65 -16 16 -10 34 -14 51 -10 23 6 26 11 21 36 -5 25 -2 30 25
39 28 10 36 8 68 -14 61 -43 94 -31 55 20 l-24 33 39 10 40 10 0 -45 c0 -37 3
-44 16 -39 9 3 22 6 30 6 8 0 14 8 14 18 0 33 12 32 53 -5 l40 -36 85 7 86 6
48 -50 c46 -49 49 -50 105 -50 32 0 69 6 83 13 33 17 38 61 11 98 -12 16 -21
30 -21 32 0 3 20 8 45 11 44 7 45 8 45 45 0 50 -36 103 -80 118 -21 6 -61 9
-98 6 l-62 -6 -55 59 -54 59 -61 -1 -60 -1 16 25 c15 23 15 26 -10 51 l-27 26
-26 -34 -27 -34 -23 29 -23 29 38 10 c57 16 48 39 -16 43 -47 3 -54 6 -68 33
-14 28 -14 32 0 48 33 36 9 71 -48 71 -15 0 -30 8 -36 20 -6 12 -21 20 -36 20
-21 0 -24 -4 -22 -27z"/>
<path d="M4052 2655 c-17 -14 -41 -25 -54 -25 -24 0 -58 -27 -58 -46 0 -5 9
-15 20 -22 20 -12 20 -14 3 -42 -16 -28 -29 -34 -103 -43 -8 -1 -16 -10 -18
-18 -2 -12 7 -18 33 -23 l36 -7 -18 -30 c-9 -16 -20 -29 -23 -29 -4 0 -17 14
-29 31 l-23 31 -26 -26 c-23 -22 -25 -29 -15 -45 14 -22 1 -31 -47 -31 -45 0
-71 -14 -123 -65 l-48 -48 -65 7 c-103 11 -156 -24 -170 -112 -7 -45 -2 -50
56 -60 l40 -7 -30 -37 c-26 -31 -29 -41 -20 -57 21 -41 96 -65 151 -51 26 7
50 25 75 56 l38 45 81 -6 c92 -8 137 6 157 50 13 29 28 24 28 -9 0 -20 6 -25
35 -28 l35 -4 0 42 0 42 35 -11 c33 -10 34 -11 20 -31 -43 -59 -25 -78 33 -36
47 34 51 35 87 18 19 -9 25 -19 25 -45 0 -36 8 -40 48 -19 15 8 53 17 84 21
59 7 66 19 21 36 l-25 9 33 42 c19 23 46 46 61 52 20 7 26 15 23 27 -3 10 -1
38 6 63 6 26 8 50 4 54 -4 4 -21 -10 -38 -31 -35 -41 -51 -44 -102 -23 -42 18
-43 28 -9 73 27 36 45 39 105 21 22 -6 42 -9 45 -5 13 13 -19 46 -57 59 l-40
13 20 27 c21 26 28 72 13 82 -5 3 -25 -15 -46 -39 -22 -28 -45 -45 -58 -45
-25 0 -88 21 -88 30 0 3 11 23 23 45 22 39 24 40 82 41 32 1 60 5 62 10 2 5
-17 20 -42 34 -25 14 -45 29 -45 35 -1 29 -17 36 -47 19 -26 -16 -36 -16 -71
-6 -39 12 -41 15 -35 42 7 37 -6 38 -45 5z"/>
<path d="M2708 1613 c-38 -14 -68 -28 -68 -32 0 -10 1203 -441 1232 -441 47 0
74 64 45 103 -7 11 -228 96 -532 207 -392 143 -531 189 -565 189 -25 0 -75
-12 -112 -26z"/>
<path d="M2445 1329 c-56 -16 -105 -83 -105 -141 1 -42 37 -106 71 -123 40
-21 123 -21 155 0 62 41 83 138 44 203 -12 19 -38 41 -63 52 -46 21 -57 22
-102 9z"/>
</g>
</svg>
