<?xml version="1.0" standalone="no"?>
<!DOCTYPE svg PUBLIC "-//W3C//DTD SVG 20010904//EN"
 "http://www.w3.org/TR/2001/REC-SVG-20010904/DTD/svg10.dtd">
<svg version="1.0" xmlns="http://www.w3.org/2000/svg"
 width="500.000000pt" height="500.000000pt" viewBox="0 0 500.000000 500.000000"
 preserveAspectRatio="xMidYMid meet">

<g transform="translate(0.000000,500.000000) scale(0.100000,-0.100000)"
fill="#000000" stroke="none">
<path d="M2275 4105 c-676 -110 -1196 -603 -1347 -1277 -20 -91 -23 -129 -23
-333 0 -204 3 -242 23 -333 145 -648 622 -1122 1272 -1264 92 -20 132 -23 325
-22 189 0 234 3 321 22 656 142 1144 638 1276 1294 33 163 33 444 0 606 -70
349 -223 627 -484 878 -217 208 -493 353 -796 415 -131 27 -438 35 -567 14z
m494 -306 c82 -21 210 -80 236 -109 13 -14 15 -28 10 -58 l-6 -40 -234 -80
-234 -81 -243 82 -243 82 -3 46 -3 45 78 37 c123 57 211 81 368 101 55 7 199
-6 274 -25z m-869 -176 c6 -65 13 -123 15 -129 2 -7 145 -59 317 -116 l313
-105 292 101 c160 56 294 104 297 107 4 3 16 55 27 115 11 60 22 115 24 122 9
24 190 -101 311 -215 46 -44 95 -99 78 -90 -11 6 -223 -75 -250 -95 -8 -5 -14
-116 -19 -338 l-7 -329 118 -163 c65 -90 148 -204 185 -253 l66 -91 107 11
c95 10 106 9 106 -5 0 -18 -48 -161 -75 -225 -23 -54 -97 -185 -105 -185 -4 0
-37 38 -74 85 -37 47 -70 85 -74 85 -4 0 -149 -37 -323 -81 l-316 -82 -184
-235 c-101 -129 -188 -242 -192 -249 -9 -14 -5 -28 32 -122 l22 -54 -119 6
c-110 6 -268 30 -280 42 -3 3 18 39 46 80 l52 74 -171 281 c-94 154 -179 284
-188 289 -21 11 -566 221 -574 221 -3 0 -33 -22 -66 -50 -33 -27 -64 -50 -69
-50 -10 0 -59 152 -68 211 l-6 37 97 -20 c81 -17 100 -18 110 -6 7 7 95 129
194 271 l182 257 -12 315 -13 315 -99 51 -99 51 33 35 c58 60 164 142 250 193
45 28 85 50 89 50 4 0 13 -53 20 -117z m-340 -393 c0 -19 5 -129 10 -244 l10
-208 -147 -209 c-133 -190 -149 -209 -176 -209 -54 0 -64 13 -77 104 -19 128
-8 319 25 431 41 140 97 237 191 333 l81 82 41 -22 c37 -20 42 -27 42 -58z
m2061 -62 c165 -198 243 -391 242 -608 0 -108 -18 -220 -40 -241 -4 -4 -26 -9
-47 -11 l-40 -3 -144 198 -144 197 7 258 8 258 36 15 c46 20 56 15 122 -63z
m-1993 -1351 l214 -82 134 -219 134 -219 -20 -31 c-10 -17 -28 -32 -40 -34
-33 -5 -193 44 -272 84 -92 46 -174 111 -275 218 -100 105 -137 161 -165 249
l-23 69 33 29 c20 18 40 28 50 24 9 -3 113 -42 230 -88z m1897 -104 c13 -16
25 -32 25 -38 0 -5 -23 -46 -51 -90 -169 -264 -408 -418 -683 -441 l-83 -7
-18 46 -17 46 151 193 151 193 237 62 c131 34 244 62 251 62 7 1 24 -11 37
-26z"/>
<path d="M2173 2908 c-177 -128 -322 -237 -322 -242 -1 -5 54 -179 121 -388
l123 -378 407 0 407 0 106 328 c58 180 114 353 125 384 l18 57 -324 235 c-178
130 -327 236 -332 236 -4 0 -152 -105 -329 -232z m577 -128 c124 -90 227 -164
228 -166 2 -1 -37 -129 -87 -283 l-92 -281 -297 0 -298 0 -91 280 -91 281 241
174 c156 114 244 172 251 166 6 -5 112 -82 236 -171z"/>
</g>
</svg>
