<?xml version="1.0" standalone="no"?>
<!DOCTYPE svg PUBLIC "-//W3C//DTD SVG 20010904//EN"
 "http://www.w3.org/TR/2001/REC-SVG-20010904/DTD/svg10.dtd">
<svg version="1.0" xmlns="http://www.w3.org/2000/svg"
 width="500.000000pt" height="500.000000pt" viewBox="0 0 500.000000 500.000000"
 preserveAspectRatio="xMidYMid meet">

<g transform="translate(0.000000,500.000000) scale(0.100000,-0.100000)"
fill="#000000" stroke="none">
<path d="M2785 3756 l-530 -303 -5 -389 -5 -389 -343 -157 c-336 -154 -344
-159 -432 -235 -49 -43 -88 -78 -87 -80 1 -1 64 -17 138 -36 l137 -34 418 192
419 192 -3 395 -4 395 368 259 c385 272 400 282 391 268 -3 -5 -114 -142 -246
-303 -133 -162 -241 -302 -241 -311 0 -8 59 -203 130 -433 l130 -417 0 -260
c0 -143 1 -260 3 -260 2 0 52 -18 113 -40 60 -22 112 -40 117 -40 4 0 7 17 7
39 0 21 3 65 6 97 l6 59 67 -66 c104 -103 215 -149 356 -149 225 0 432 163
490 385 21 84 20 218 -5 296 -70 227 -260 370 -491 370 -174 1 -341 -93 -426
-239 -14 -24 -29 -40 -33 -35 -8 9 -203 631 -203 648 0 6 98 169 218 364 119
195 219 361 222 369 6 15 -123 153 -142 151 -5 0 -248 -137 -540 -303z m1010
-1225 c60 -27 103 -68 133 -125 22 -43 27 -64 27 -131 0 -70 -4 -87 -30 -134
-48 -88 -134 -139 -235 -140 -99 -1 -203 69 -246 166 -25 56 -23 166 3 224 25
57 83 115 137 140 54 25 157 25 211 0z"/>
<path d="M1312 2080 c-280 -39 -535 -164 -731 -358 -61 -61 -161 -185 -161
-201 0 -8 117 -81 129 -81 6 0 24 20 41 45 44 64 157 174 233 229 195 139 416
206 678 206 298 0 643 -77 1292 -289 524 -172 729 -227 950 -256 222 -29 431
-15 607 41 88 27 214 86 225 104 5 8 -43 101 -71 138 -1 2 -40 -15 -86 -37
-122 -59 -226 -82 -400 -88 -287 -10 -484 32 -1113 237 -717 234 -1041 308
-1365 315 -91 2 -193 0 -228 -5z"/>
<path d="M1687 1455 c-107 -21 -222 -67 -314 -127 -80 -52 -194 -161 -225
-216 l-18 -30 67 -42 67 -42 35 44 c87 107 196 182 326 225 73 25 94 27 235
27 217 1 379 -35 820 -179 423 -138 533 -164 723 -172 160 -7 244 5 357 48
119 47 118 44 69 128 l-40 71 -50 -25 c-102 -52 -241 -72 -386 -55 -124 14
-306 62 -608 160 -272 88 -499 150 -640 175 -132 23 -323 28 -418 10z"/>
</g>
</svg>
