<?xml version="1.0" standalone="no"?>
<!DOCTYPE svg PUBLIC "-//W3C//DTD SVG 20010904//EN"
 "http://www.w3.org/TR/2001/REC-SVG-20010904/DTD/svg10.dtd">
<svg version="1.0" xmlns="http://www.w3.org/2000/svg"
 width="500.000000pt" height="500.000000pt" viewBox="0 0 500.000000 500.000000"
 preserveAspectRatio="xMidYMid meet">

<g transform="translate(0.000000,500.000000) scale(0.100000,-0.100000)"
fill="#000000" stroke="none">
<path d="M2250 4114 c-192 -35 -423 -131 -590 -245 -328 -224 -524 -520 -612
-923 -30 -137 -33 -456 -5 -586 37 -172 114 -363 206 -514 23 -38 39 -72 34
-77 -4 -4 -91 -44 -193 -89 -101 -44 -192 -88 -202 -97 -41 -37 -9 -123 46
-123 13 0 116 40 228 89 111 48 232 98 268 109 286 93 582 76 848 -48 46 -22
148 -80 229 -131 157 -99 244 -141 368 -182 149 -49 237 -61 420 -62 188 0
261 10 408 56 117 37 411 180 420 204 15 37 7 74 -19 94 -15 12 -33 21 -40 21
-8 0 -78 -32 -155 -71 -183 -91 -310 -133 -471 -154 -69 -9 -134 -15 -144 -13
-11 2 13 26 77 75 252 191 436 443 529 720 62 188 74 267 74 498 1 195 -1 218
-26 315 -46 181 -103 312 -206 470 -220 341 -546 567 -942 655 -108 24 -436
30 -550 9z m380 -135 c47 -5 110 -16 140 -23 l55 -12 -70 -23 c-416 -139 -765
-500 -946 -978 -13 -35 -27 -63 -30 -63 -19 0 -145 95 -218 165 -89 84 -197
221 -207 260 -11 43 145 246 279 363 265 233 653 354 997 311z m523 -165 c68
-35 126 -74 214 -147 68 -56 183 -179 183 -196 0 -5 -26 -11 -57 -15 -86 -10
-246 -54 -352 -97 -266 -108 -489 -301 -642 -555 -23 -38 -47 -72 -53 -76 -19
-13 -180 -9 -271 7 -48 9 -124 28 -169 43 -95 32 -93 21 -35 167 82 207 205
391 366 546 181 175 373 276 623 330 115 24 132 23 193 -7z m510 -512 c50 -55
135 -309 158 -470 15 -106 6 -371 -15 -467 -35 -155 -111 -340 -189 -455 -37
-54 -139 -182 -143 -178 -1 2 2 26 7 53 5 28 14 100 18 160 31 372 -94 760
-356 1105 -94 125 -97 109 32 168 118 53 284 90 451 101 11 0 28 -7 37 -17z
m-2209 -355 c237 -231 528 -356 876 -374 63 -3 122 -9 130 -14 22 -10 103
-169 133 -259 29 -86 60 -230 52 -238 -12 -13 -236 -31 -380 -31 -301 -1 -536
65 -764 216 -95 63 -258 220 -310 298 l-33 50 5 111 c4 61 13 146 22 189 16
75 61 229 73 249 3 5 28 -17 55 -50 28 -32 91 -99 141 -147z m1539 56 c174
-215 300 -479 341 -718 20 -115 20 -327 1 -439 -19 -107 -77 -281 -104 -310
-11 -12 -67 -46 -123 -75 l-103 -54 -115 43 c-63 24 -121 48 -128 54 -10 9 -8
30 9 101 30 132 37 389 14 527 -23 139 -73 288 -141 418 l-56 109 36 64 c19
35 56 91 80 124 47 62 209 223 225 223 5 0 33 -30 64 -67z m-1721 -768 c168
-151 412 -271 660 -326 132 -29 429 -37 597 -15 69 8 127 13 130 11 6 -6 -16
-196 -30 -257 -6 -27 -15 -48 -19 -48 -5 0 -38 18 -72 41 -131 85 -309 158
-471 194 -110 25 -350 30 -476 11 -58 -9 -115 -16 -127 -16 -29 0 -85 77 -153
209 -48 95 -106 241 -95 241 3 0 29 -20 56 -45z"/>
<path d="M1618 1495 c-124 -17 -224 -45 -363 -100 -168 -66 -359 -154 -372
-172 -23 -30 -16 -79 14 -103 35 -27 39 -26 243 65 319 141 454 177 665 177
249 0 426 -58 677 -220 208 -134 353 -197 559 -244 192 -43 486 -23 697 47 81
27 345 155 375 182 40 37 7 123 -47 123 -13 0 -91 -33 -173 -73 -231 -113
-397 -157 -592 -157 -257 0 -456 67 -736 247 -191 123 -317 177 -496 213 -131
27 -325 34 -451 15z"/>
</g>
</svg>
