<svg xmlns="http://www.w3.org/2000/svg" viewBox="0 0 448.1 448.1"><g fill="#FFF"><path d="M299.2 228.5c0 40.1-33.6 72.6-75 72.6s-75-32.5-75-72.6c0-7.2 1.1-14.1 3.1-20.7h-22.1v101.9c0 5.3 4.3 9.6 9.6 9.6h167.9c5.3 0 9.6-4.3 9.6-9.6V207.8h-21.2c2.1 6.6 3.1 13.5 3.1 20.7z"/><path d="M224.3 272.8c26.7 0 48.4-21 48.4-46.9S251 179 224.3 179s-48.4 21-48.4 46.9c-.1 25.9 21.6 46.9 48.4 46.9zM275 183.7h25.2c5.5 0 10-4.5 10-10.1v-24c0-5.5-4.5-10.1-10-10.1H275c-5.5 0-10 4.5-10 10.1v24c0 5.6 4.5 10.1 10 10.1z"/><path d="M224 0C100.5 0 0 100.5 0 224s100.5 224 224 224 224-100.5 224-224C448.1 100.5 347.6 0 224 0zm120.6 316c0 17-13.9 30.9-31 30.9H134.4c-17 0-31-13.9-31-30.9V136.8c0-17 13.9-31 31-31h179.3c17 0 31 13.9 31 31V316z"/></g></svg>