<svg xmlns="http://www.w3.org/2000/svg" viewBox="61 235.9 864.5 127.9"><path d="M275.8 257.2h7.3s2.5-.2 3.1-4c.6-3.1-2.5-3.6-2.5-3.6h-6.5l-1.4 7.6zm-3.2 19.2h8.4s2.9-.2 3.5-4.4c.6-3.3-2.7-4-2.7-4h-7.7l-1.5 8.4zm-14.8-39.7h30s14.8 1.9 12.7 15.9c-1.3 8.8-7.5 10.4-7.5 10.4s7.7 3.1 5 14.6-13.6 11.1-13.6 11.1h-29.2l6.9-39.2h-6.5l2.2-12.8zM197.7 323.5c-2.5 7.1-8.1 10.9-12.5 9-4.4-2.1-6.1-9.4-3.8-16.5 2.5-7.1 8.1-10.9 12.5-9 4.6 2.1 6.3 9.4 3.8 16.5zm-2.5-30.7c-13.2-1.9-26.5 8.6-29.6 23.4-3.1 14.8 5.2 28.4 18.4 30.1 13.2 1.9 26.5-8.6 29.6-23.4 3.1-14.8-5.1-28.2-18.4-30.1zM139.3 307h5.8s3.3.6 2.3 6c-1 5.8-4.2 5.4-4.2 5.4h-5.8l1.9-11.4zm-20.5 0h6.3l-6.9 38.4h14.6l2.7-16.3H148s13.1 0 14.6-16.5c1.7-16.3-15-18.4-15-18.4h-26.5l-2.3 12.8zM203.8 262.8c0 14.8-12.1 26.9-26.9 26.9S150 277.6 150 262.8c0-14.8 12.1-26.9 26.9-26.9s26.9 12.1 26.9 26.9zm-52.2.8c5.6 11.5 19.2 17.9 31.9 14.6 8.4-2.1 15.4-7.9 19-15.6-4.4-8.4-13.1-14.2-22.7-15.2-11.7-1.3-23.2 5.6-28.2 16.2zm25.4-15c-7.9 0-14.2 6.3-14.2 14.2S169.1 277 177 277c7.9 0 14.2-6.3 14.2-14.2s-6.4-14.2-14.2-14.2zM235.9 307h6.5s2.7 1 2.7 3.6c-.2 4.4-3.3 5.4-3.3 5.4h-7.5l1.6-9zm-20.5 0h6.3l-6.9 38.4h14.4l3.1-17.1h5.8l3.5 17.1h14.8l-5-20.2s9.8-3.8 9.4-16.1c-.4-13.6-15-15-15-15h-28.2l-2.2 12.9zM343 236.7h-25s-14.4.2-15.4 14c-.8 12.1 6.9 13.1 14 16.5 6.9 3.6 8.1 4.2 7.7 6.5-.2.8-1.2 2.1-3.5 2.1h-8.1l1-5.4h-12.3l-3.6 18.2h25.7s16.3-1.2 16.7-14.6c.4-11.5-6.7-14.8-12.5-17.1-1.7-.8-6.1-2.9-6.9-3.3-1.3-.8-2.5-1.3-2.1-3.1.2-.6.4-1.3 3.3-1.3h6.1l-1 4.4H340l3-16.9zM341.7 293.3h-25s-14.4.2-15.4 14c-.8 12.1 6.9 13.1 14 16.5 6.9 3.6 8.1 4.2 7.7 6.5-.2.8-1.2 2.1-3.5 2.1h-8.1l1-5.4h-12.3l-3.6 18.2h25.7s16.3-1.2 16.7-14.6c.4-11.5-6.7-14.8-12.5-17.1-1.7-.8-6.1-2.9-6.9-3.3-1.3-.8-2.5-1.3-2.1-3.1.2-.6.4-1.3 3.3-1.3h6.1l-1 4.4h12.9l3-16.9zM255.1 236.7h-23s-20.9-.4-25 25.3c-2.3 14.6 5.4 21.5 10.8 24.6 2.7 1.5 6.7 2.1 6.7 2.1h21.3l3.6-20.2h-12.7l-1.3 7.3h-7.1s-7.5-1.3-4.8-14c2.9-13.6 10.6-12.3 10.6-12.3h6l-1.2 6.7h12.3l3.8-19.5zM264.1 294.1h37.7l-2.3 12.9h-11l-6.7 38.4h-14.4l6.9-38.4H262zM118.2 293.9H87.9c-.6 0-18.6 1.3-20.4 18.6-1.3 13.8 6.7 16.5 16.1 21.3 9.4 4.8 15.6 8.4 14.4 13.6-.6 2.9-3.5 3.8-6.5 3.8H77.9l1.2-6.7H64.5L61 363.8h35.3c.8 0 3.8-.4 4.8-.6 1.7-.4 4-1.2 7.1-3.6 3.8-3.1 7.3-8.4 7.3-16.1 0-16.7-20.9-22.1-25.9-25-1.7-1-7.9-4-5.6-9.2.8-1.5 2.3-2.7 7.3-2.7h10.2l-1.2 7.1h14.4l3.5-19.8zM341.7 350.6H121.9c-1.3 4.2-4 7.9-7.5 10.6-1 .8-1.9 1.3-2.9 1.9h227.7l2.5-12.5z"/><g><path d="M437.1 287.4h-47.6c1.3-9.1 6.4-12.7 18.8-12.7h34.9l10.1-23.2h-43.5c-18.3 0-30.3 3.5-38.1 11-6.9 6.8-9.1 15.8-9.7 24.9h-4.6l-9.6 23.1h13.5v35.1h27.4v-35.1h37.7l10.7-23.1zM698.8 251.5H577v49.9l-29.7-49.9h-30.6v69.4c-10.1-22.7-30.8-69.4-30.8-69.4h-25.7l-41.5 94.1H448s6.4-16.5 8.1-20.4h33c1.6 4 8.2 20.4 8.2 20.4h46.6v-53.1l31.6 53.1h28.7v-70.8h25v70.8h28v-70.8h31.1l10.5-23.3zm-219.1 50.1h-14.2c2-4.9 4-10.2 6.9-17.6 3 7.5 5.1 12.6 7.3 17.6zM893.7 251.5l-20.1 29.3-19.8-29.3h-62c-24.1 0-35.8 9.9-35.8 30.5 0 19.3 11.2 28.7 34.1 28.7h18c8.7 0 9.1 2 9.1 5.8 0 3.1 0 5.6-10.4 5.6h-45.3c-2-4.6-31.3-70.5-31.3-70.5h-25.7l-41.7 94.1h29.3s6.4-16.5 8.1-20.4h33c1.6 4 8.2 20.4 8.2 20.4h68.2c23.9 0 35.6-9.7 35.6-29.8 0-19.6-10.1-28.3-32.8-28.3h-20.8c-7.6 0-7.6-3.1-7.6-5.3 0-4 .8-7.1 10.2-7.1h44.5c2.1 3.1 19.9 28 21.3 29.8v40.7h27.5V305c1.5-2 37.9-53.4 37.9-53.4h-31.7zm-169.9 50.1h-14.2c2-4.9 4-10.2 6.9-17.6 3.2 7.5 5.4 12.6 7.3 17.6z"/></g></svg>