<svg xmlns="http://www.w3.org/2000/svg" viewBox="386 -128.5 800 285.5"><path d="M411.1-84.4h172.1l-7.3 56.3H404.1l7-56.3zM401-7.4h172.3L568 38.4H460.3l-2.8 21.9h107.9l-6.7 52.3H386l15-120zm185-20.7s1.2-19.2 6-29.2c4.5-9.4 10.5-16.2 20.6-21.9 6-3.2 16.7-5.2 16.7-5.2h310s13 .2 18.6 2.5c6 2.5 14.7 6.2 19.3 17.4 4.5 10.7 3.6 14.2 3.6 24.9 0 10.5-.3 11.5-.3 11.5H586zm-2.8 21.2h158.6s14.1 0 20.6 3.9c6.8 4.5 9.9 10 11.9 18.7 1.9 8.7-3.4 52.6-6.5 63.3-3.4 10.5-7.4 20.4-23.8 28.6-14.7 7.5-37 5-37 5H570l8.1-52.3h128.3l2.6-22.2h-88.5s-14.4 2-27.9-9.7c-8.2-7-9.1-17.7-9.6-22.4-.6-2.7.2-12.9.2-12.9zm206.3 0h187.1s-1.7 21.6-6.8 29.3c-5.1 8-9.6 12.3-18.1 14.2-8.7 2-21.7 2-21.7 2h-81.4l-8.5 74h-65.3L789.5-6.9zm199.8-20.7h194.4s3.7-17 1.7-27.7-6.8-17.9-14.7-23.1c-10.4-7.3-29.4-6-29.1-6H997.2l-7.9 56.8zm-2.5 20.7h64.4l-14.7 119.5h-63.9L986.8-6.9zm129.4.5h63.8l-14.7 119h-63.5l14.4-119z"/></svg>