<svg viewBox="0 0 50 18" xmlns="http://www.w3.org/2000/svg" fill-rule="evenodd" clip-rule="evenodd" stroke-linejoin="round" stroke-miterlimit="1.414"><path d="M49.555 15.195c0 1.27-.777 1.86-2.17 1.86h-2.66v-1.27h2.66c.246 0 .45-.04.533-.126a.545.545 0 0 0 .163-.382.65.65 0 0 0-.162-.422c-.083-.085-.246-.127-.492-.127-1.27-.044-2.865.04-2.865-1.82 0-.846.534-1.776 1.966-1.776h2.742v1.27H46.73c-.245 0-.41 0-.532.084-.122.126-.204.253-.204.466 0 .21.123.338.285.422.163.043.327.085.532.085h.736c.777 0 1.27.17 1.596.467.247.296.41.677.41 1.268zm-5.77-1.268c-.328-.297-.82-.466-1.598-.466h-.736a1.96 1.96 0 0 1-.53-.084c-.164-.084-.287-.21-.287-.422 0-.213.04-.34.205-.466.122-.085.285-.085.53-.085h2.538v-1.27h-2.742c-1.473 0-1.965.932-1.965 1.777 0 1.86 1.597 1.776 2.864 1.82.246 0 .41.04.492.126.08.084.164.252.164.422a.55.55 0 0 1-.164.38c-.123.086-.287.127-.532.127h-2.66v1.27h2.66c1.39 0 2.17-.592 2.17-1.86 0-.59-.165-.972-.41-1.268zm-5.24 1.902h-3.232v-1.185h3.15V13.46h-3.15v-1.1h3.232v-1.227h-4.582v5.92h4.582V15.83zm-6.057-4.398c-.45-.255-.98-.297-1.678-.297h-3.15v5.92h1.39V14.9h1.476c.49 0 .777.042.98.253.246.296.246.804.246 1.185v.72h1.35v-1.144c0-.55-.04-.804-.203-1.1-.124-.168-.37-.38-.696-.507.367-.127.98-.634.98-1.565 0-.677-.245-1.057-.696-1.31zm-7.774-.297h-4.38l-1.76 1.946-1.677-1.945h-5.525v5.92h5.443l1.76-1.945 1.678 1.946h2.66V15.07h1.72c1.186 0 2.372-.34 2.372-1.988 0-1.608-1.228-1.947-2.29-1.947zm6.67 2.453c-.204.085-.41.085-.655.085l-1.68.042V12.36h1.68c.245 0 .49 0 .654.128.163.085.286.253.286.507a.752.752 0 0 1-.286.593zm-6.67.296h-1.8v-1.522h1.8c.49 0 .817.212.817.72 0 .506-.325.802-.816.802zm-5.28.21l2.13-2.324v4.778l-2.13-2.453zM16.12 15.83h-3.397v-1.185h3.028V13.46h-3.027v-1.1h3.438l1.515 1.733-1.556 1.736zm29.628-8.966h-1.964l-2.58-4.44v4.44h-2.782l-.53-1.312h-2.866l-.53 1.312h-1.597c-.656 0-1.516-.17-2.007-.678-.45-.507-.695-1.184-.695-2.24 0-.89.123-1.69.736-2.326.41-.465 1.146-.676 2.087-.676h1.31v1.268h-1.31c-.49 0-.776.085-1.062.34-.246.253-.37.718-.37 1.352 0 .635.124 1.1.37 1.396.205.21.572.296.94.296h.614l1.965-4.65h2.046l2.292 5.58V.947h2.128l2.415 4.1v-4.1h1.39v5.918zM29.502.944H28.11v5.92H29.5V.944zm-2.906.254c-.45-.254-.94-.254-1.637-.254h-3.15v5.92h1.35V4.707h1.473c.49 0 .818.042 1.023.254.245.297.204.805.204 1.143v.762h1.39V5.68c0-.507-.04-.76-.244-1.058a1.714 1.714 0 0 0-.655-.507c.37-.17.983-.635.983-1.564 0-.676-.287-1.057-.737-1.352zm-5.77 4.44h-3.192V4.453h3.15V3.226h-3.15V2.17h3.192V.944h-4.584v5.92h4.584V5.638zM15.22.944h-2.252L11.29 4.96 9.49.945H7.28v5.582L4.946.944H2.9L.446 6.864H1.92l.53-1.312h2.865l.532 1.312H8.63V2.212l2.005 4.652h1.187l2.005-4.652v4.652h1.392V.944zm22.18 3.34l-.94-2.326-.942 2.326H37.4zm-11.87-.93c-.202.126-.407.126-.693.126h-1.68V2.17h1.68c.245 0 .53 0 .694.085.165.127.247.296.247.55 0 .253-.082.465-.246.55zm-22.588.93l.94-2.326.94 2.326h-1.88z" fill="#7f7f7f"/></svg>