<svg xmlns="http://www.w3.org/2000/svg" viewBox="0 0 444.8 444.8"><path fill="#FFF" d="M334.4 177.6c.1 2.4.2 4.8.2 7.3 0 74.1-56.4 159.5-159.5 159.5-31.6 0-61.1-9.3-85.9-25.2 4.4.5 8.8.8 13.4.8 26.3 0 50.4-9 69.6-24-24.5-.5-45.2-16.7-52.3-38.9 3.4.7 6.9 1 10.5 1 5.1 0 10.1-.7 14.8-2-25.6-5.1-45-27.8-45-54.9v-.7c7.6 4.2 16.2 6.7 25.4 7-15-10.1-24.9-27.2-24.9-46.7 0-10.3 2.8-19.9 7.6-28.2 27.6 33.9 68.9 56.2 115.5 58.5-1-4.1-1.5-8.4-1.5-12.8 0-30.9 25.1-56 56-56 16.1 0 30.7 6.8 40.9 17.7 12.8-2.5 24.8-7.2 35.6-13.6-4.2 13.1-13.1 24.1-24.7 31 11.4-1.4 22.2-4.4 32.2-8.8-7.4 11.2-16.9 21-27.9 29zM222.4 0C99.6 0 0 99.6 0 222.4c0 122.8 99.6 222.4 222.4 222.4s222.4-99.5 222.4-222.4C444.8 99.6 345.2 0 222.4 0z"/></svg>