<svg xmlns="http://www.w3.org/2000/svg" viewBox="250 134.1 1000 232.9"><path d="M1206.2 145.6s-1.8-.3-3-.3c-7 0-13.9 4.1-13.9 14.5-4.1 52.4-8.4 104.9-15.5 154.8 4.3-.7 7.6.4 10.8 1.7 8-50.7 27.1-126.8 32-148.3.7-3 1.7-6.6 1.7-9.1 0-7.6-4.8-12.1-12.1-13.3zM702.2 166.3c1.4 27 2.2 54.1 2.3 81.2-32.4.8-64.9.8-97.2 0 .1-27.1.9-54.1 2.3-81.2-9.5 2.3-19.2 2.4-29 0 2.5 58.1 2.3 116.1 0 174 9.4-2.3 19.1-2.4 29 0h-.1.1c-1.4-27-2.2-54-2.3-80.9 32.4-.5 64.8-.5 97.2 0-.1 27-.8 53.9-2.3 80.9h.1-.1c9.9-2.4 19.5-2.3 29 0-2.3-57.9-2.5-115.9 0-174-9.9 2.3-19.5 2.2-29 0zM495.4 166.2c-7.2 2.5-13.1 2.4-20.2 0-23.3 58.6-50.2 124.7-74.4 174h0l.2-.1h-.1c11.1-2.7 21.6-1.9 28.6 0 6.2-15.6 13.2-33.2 20.2-51 23.8-.7 47.5-.8 71.3 0 6.8 17 13.5 34 20.1 51 10.6-2.8 21.1-2 28.9 0-17.4-32.5-52.4-117.6-74.6-173.9zm-10.2 30c9.6 26.8 20.2 53.8 30.9 80.9h-.1c-20.6.7-41.1.7-61.7 0 12.7-32 24.6-62.8 30.9-80.9zM367.7 269.5c24.2-42.4 64.1-111.6 75-126.4-10.4 2.4-19.9 2.4-29.2 0-8.2 15.4-38.6 65-58 96.8-19.6-32.5-42.9-70-58-96.8-12 2.6-17 2.7-29 0 23.8 35.8 61.8 104 74.8 126.4l-1.7 93.4s8.4-1.4 13.9-1.4c6.2 0 13.9 1.4 13.9 1.4l-1.7-93.4zM833.3 163.9c-61.5 0-93.8 39-93.8 89.6 0 55.3 35.2 89.1 93.7 89.1 63.2 0 94.1-38 94.1-88.5 0-56.3-36.9-90.2-94-90.2zm-1.5 10.6h1.6c37.6 0 65.2 25.6 65.2 79.1 0 53.5-27.6 79.1-65.2 79.1-41 0-65.1-29.4-65.1-78.9.1-56.1 29.8-78.7 63.5-79.3zM1045.6 153.4zM1045.6 153.4c-61.3 0-108.1 34.8-108.1 99.4 0 53.3 31.1 100.2 108.6 100.2 65.6 0 108.4-36 108.4-99.2 0-59.6-39.9-100.4-108.9-100.4zm-79.1 99.1c0-68.1 41.9-88.2 79.2-88.2 46 0 79.9 27.9 79.9 89.6 0 67-41 88.7-79.8 88.7-41.5-.1-79.3-24.4-79.3-90.1zM1172.9 335.7c-9.1 0-13.7 7-13.7 14.4 0 8.8 7 13.3 15.8 13.3 6.3 0 13.2-3.8 13.2-14.2 0-8.3-6.6-13.5-15.3-13.5z"/></svg>