<?xml version="1.0" standalone="no"?><!DOCTYPE svg PUBLIC "-//W3C//DTD SVG 1.1//EN" "http://www.w3.org/Graphics/SVG/1.1/DTD/svg11.dtd"><svg width="100%" height="100%" viewBox="0 0 24 24" version="1.1" xmlns="http://www.w3.org/2000/svg" xmlns:xlink="http://www.w3.org/1999/xlink" xml:space="preserve" style="fill-rule:evenodd;clip-rule:evenodd;stroke-linejoin:round;stroke-miterlimit:1.41421;"><g><path d="M24,14.705c0,-2.198 -0.676,-3.906 -2.596,-5.216c0.134,0.611 0.113,1.482 0.06,2.123c-0.418,4.945 -4.466,8.343 -9.311,8.815c0.802,0.518 1.831,0.986 3.015,1.15c1.328,0.135 2.588,0.048 3.713,-0.376c1.429,0.481 2.985,0.607 4.274,0.607c-0.672,-0.799 -1.134,-1.592 -1.469,-2.284c1.433,-1.271 2.314,-2.961 2.314,-4.819Z" style="fill:#fff;fill-rule:nonzero;"/><path d="M19.477,10.914c0,-4.368 -4.358,-7.914 -9.738,-7.914c-5.38,0 -9.739,3.545 -9.739,7.914c0,2.278 1.192,4.327 3.091,5.77c-0.357,0.922 -0.961,2.127 -1.986,3.359c1.946,0 4.449,-0.254 6.38,-1.44c0.726,0.142 1.478,0.221 2.255,0.221c5.378,-0.001 9.737,-3.543 9.737,-7.91Z" style="fill:#fff;fill-rule:nonzero;"/></g></svg>