<?xml version="1.0" encoding="UTF-8" standalone="no"?><!DOCTYPE svg PUBLIC "-//W3C//DTD SVG 1.1//EN" "http://www.w3.org/Graphics/SVG/1.1/DTD/svg11.dtd"><svg width="100%" height="100%" viewBox="0 0 24 24" version="1.1" xmlns="http://www.w3.org/2000/svg" xmlns:xlink="http://www.w3.org/1999/xlink" xml:space="preserve" style="fill-rule:evenodd;clip-rule:evenodd;stroke-linejoin:round;stroke-miterlimit:1.41421;"><path d="M12,22.178c1.108,0 2.014,-0.906 2.014,-2.014l-4.028,0c0,1.108 0.896,2.014 2.014,2.014ZM18.042,16.136l0,-5.035c0,-3.091 -1.652,-5.679 -4.532,-6.364l0,-0.685c0,-0.835 -0.674,-1.51 -1.51,-1.51c-0.836,0 -1.51,0.675 -1.51,1.51l0,0.685c-2.891,0.685 -4.532,3.263 -4.532,6.364l0,5.035l-2.014,2.014l0,1.007l16.112,0l0,-1.007l-2.014,-2.014Z" style="fill:#fff;fill-rule:nonzero;"/></svg>