<?xml version="1.0" encoding="UTF-8" standalone="no"?><!DOCTYPE svg PUBLIC "-//W3C//DTD SVG 1.1//EN" "http://www.w3.org/Graphics/SVG/1.1/DTD/svg11.dtd"><svg width="100%" height="100%" viewBox="0 0 24 24" version="1.1" xmlns="http://www.w3.org/2000/svg" xmlns:xlink="http://www.w3.org/1999/xlink" xml:space="preserve" style="fill-rule:evenodd;clip-rule:evenodd;stroke-linejoin:round;stroke-miterlimit:1.41421;"><path d="M20.173,13.078c0.044,-0.352 0.077,-0.704 0.077,-1.078c0,-0.374 -0.033,-0.726 -0.077,-1.078l2.321,-1.815c0.209,-0.165 0.264,-0.462 0.132,-0.704l-2.2,-3.806c-0.132,-0.242 -0.429,-0.33 -0.671,-0.242l-2.739,1.1c-0.572,-0.44 -1.188,-0.803 -1.859,-1.078l-0.418,-2.915c-0.033,-0.264 -0.264,-0.462 -0.539,-0.462l-4.4,0c-0.275,0 -0.506,0.198 -0.539,0.462l-0.418,2.915c-0.671,0.275 -1.287,0.649 -1.859,1.078l-2.739,-1.1c-0.253,-0.099 -0.539,0 -0.671,0.242l-2.2,3.806c-0.143,0.242 -0.077,0.539 0.132,0.704l2.321,1.815c-0.044,0.352 -0.077,0.715 -0.077,1.078c0,0.363 0.033,0.726 0.077,1.078l-2.321,1.815c-0.209,0.165 -0.264,0.462 -0.132,0.704l2.2,3.806c0.132,0.242 0.429,0.33 0.671,0.242l2.739,-1.1c0.572,0.44 1.188,0.803 1.859,1.078l0.418,2.915c0.033,0.264 0.264,0.462 0.539,0.462l4.4,0c0.275,0 0.506,-0.198 0.539,-0.462l0.418,-2.915c0.671,-0.275 1.287,-0.649 1.859,-1.078l2.739,1.1c0.253,0.099 0.539,0 0.671,-0.242l2.2,-3.806c0.132,-0.242 0.077,-0.539 -0.132,-0.704l-2.321,-1.815l0,0ZM12,15.85c-2.123,0 -3.85,-1.727 -3.85,-3.85c0,-2.123 1.727,-3.85 3.85,-3.85c2.123,0 3.85,1.727 3.85,3.85c0,2.123 -1.727,3.85 -3.85,3.85Z" style="fill:#fff;fill-rule:nonzero;"/></svg>