<?xml version="1.0" encoding="UTF-8" standalone="no"?><!DOCTYPE svg PUBLIC "-//W3C//DTD SVG 1.1//EN" "http://www.w3.org/Graphics/SVG/1.1/DTD/svg11.dtd"><svg width="100%" height="100%" viewBox="0 0 24 24" version="1.1" xmlns="http://www.w3.org/2000/svg" xmlns:xlink="http://www.w3.org/1999/xlink" xml:space="preserve" style="fill-rule:evenodd;clip-rule:evenodd;stroke-linejoin:round;stroke-miterlimit:1.41421;"><path d="M13.5,7c1.375,0 2.5,-1.125 2.5,-2.5c0,-1.375 -1.125,-2.5 -2.5,-2.5c-1.375,0 -2.5,1.125 -2.5,2.5c0,1.375 1.125,2.5 2.5,2.5ZM13.5,9.5c-1.375,0 -2.5,1.125 -2.5,2.5c0,1.375 1.125,2.5 2.5,2.5c1.375,0 2.5,-1.125 2.5,-2.5c0,-1.375 -1.125,-2.5 -2.5,-2.5ZM13.5,17c-1.375,0 -2.5,1.125 -2.5,2.5c0,1.375 1.125,2.5 2.5,2.5c1.375,0 2.5,-1.125 2.5,-2.5c0,-1.375 -1.125,-2.5 -2.5,-2.5Z" style="fill:#fff;fill-rule:nonzero;"/></svg>