<?xml version="1.0" encoding="utf-8"?>
<!-- Generator: Adobe Illustrator 24.2.3, SVG Export Plug-In . SVG Version: 6.00 Build 0)  -->
<svg version="1.1" id="Layer_1" xmlns="http://www.w3.org/2000/svg" xmlns:xlink="http://www.w3.org/1999/xlink" x="0px" y="0px"
	 viewBox="0 0 1855.43 482.85" style="enable-background:new 0 0 1855.43 482.85;" xml:space="preserve">
<style type="text/css">
	.st0{fill:#00295C;}
	.st1{fill:#29ABE2;}
</style>
<g>
	<g>
		<path class="st0" d="M608.29,198.33h-25.17v51.57h-41.16V105.35h66.33c37.16,0,57.16,22.74,57.16,46.49
			S645.45,198.33,608.29,198.33z M606.41,137.22h-23.28v29.24h23.28c11.29,0,17.88-7.11,17.88-14.62
			C624.28,144.33,617.7,137.22,606.41,137.22z"/>
		<path class="st0" d="M774.1,249.91l-29.64-53.8h-13.88v53.8h-41.16V105.35h66.33c37.16,0,57.16,22.74,57.16,46.49
			c0,19.69-14.11,32.08-27.29,37.76l36.22,60.3H774.1z M753.87,137.22h-23.28v29.24h23.28c11.29,0,17.88-7.11,17.88-14.62
			C771.75,144.33,765.17,137.22,753.87,137.22z"/>
		<path class="st0" d="M842.77,249.91V105.35h113.84v31.67h-72.68v24.16h62.1v31.67h-62.1v25.38h72.68v31.67H842.77z"/>
		<path class="st0" d="M1052.1,198.33h-25.17v51.57h-41.16V105.35h66.33c37.16,0,57.16,22.74,57.16,46.49
			S1089.26,198.33,1052.1,198.33z M1050.22,137.22h-23.28v29.24h23.28c11.29,0,17.88-7.11,17.88-14.62
			C1068.09,144.33,1061.51,137.22,1050.22,137.22z"/>
	</g>
	<g>
		<path class="st0" d="M1193.76,251.95c-21.85,0-36.14-5.51-49.82-19.19l10.62-10.62c12.05,12.05,23.28,15.93,39.61,15.93
			c21.24,0,34.3-10,34.3-26.95c0-7.56-2.25-14.09-6.94-18.17c-4.69-4.08-8.37-5.31-18.99-6.94l-16.95-2.65
			c-11.44-1.84-20.42-5.51-26.75-11.03c-7.35-6.53-11.03-15.52-11.03-27.16c0-24.71,17.76-41.04,46.55-41.04
			c18.58,0,30.83,4.7,43.29,15.93l-10,10c-8.98-8.17-18.58-12.46-33.89-12.46c-19.4,0-30.63,10.82-30.63,26.95
			c0,7.15,2.04,12.86,6.53,16.74c4.49,3.88,12.05,6.74,19.6,7.96l15.92,2.45c13.68,2.04,20.42,4.9,26.54,10.21
			c7.96,6.74,12.25,16.74,12.25,28.79C1243.99,236.23,1223.98,251.95,1193.76,251.95z"/>
		<path class="st0" d="M1314.23,190.9h-38.59v59.82h-15.52V105.35h54.11c26.54,0,44.92,16.54,44.92,42.67
			S1340.77,190.9,1314.23,190.9z M1312.8,119.23h-37.16v57.78h37.16c18.17,0,30.83-9.8,30.83-28.99S1330.97,119.23,1312.8,119.23z"
			/>
		<path class="st0" d="M1454.91,236.84c-9.8,9.8-22.66,15.11-37.16,15.11c-14.5,0-27.36-5.31-37.16-15.11
			c-13.68-13.68-13.68-27.97-13.68-58.8s0-45.12,13.68-58.8c9.8-9.8,22.66-15.11,37.16-15.11c14.5,0,27.36,5.31,37.16,15.11
			c13.68,13.68,13.68,27.97,13.68,58.8S1468.59,223.16,1454.91,236.84z M1442.86,128.42c-6.33-6.53-15.52-10.41-25.11-10.41
			c-9.6,0-18.79,3.88-25.12,10.41c-9.19,9.39-10.21,19.19-10.21,49.62c0,30.42,1.02,40.22,10.21,49.62
			c6.33,6.53,15.52,10.41,25.12,10.41c9.6,0,18.78-3.88,25.11-10.41c9.19-9.39,10.21-19.19,10.21-49.62
			C1453.07,147.61,1452.05,137.81,1442.86,128.42z"/>
		<path class="st0" d="M1572.31,250.72l-33.08-64.52h-34.91v64.52h-15.52V105.35h55.74c25.32,0,43.08,15.31,43.08,40.43
			c0,21.23-12.86,35.12-31.65,39l34.51,65.95H1572.31z M1543.11,119.23h-38.79v53.29h38.79c16.95,0,28.99-8.78,28.99-26.54
			S1560.06,119.23,1543.11,119.23z"/>
		<path class="st0" d="M1649.08,119.23v131.49h-15.52V119.23h-42.06v-13.88h99.64v13.88H1649.08z"/>
		<path class="st0" d="M1739.33,251.95c-21.85,0-36.14-5.51-49.82-19.19l10.62-10.62c12.05,12.05,23.28,15.93,39.61,15.93
			c21.24,0,34.3-10,34.3-26.95c0-7.56-2.25-14.09-6.94-18.17c-4.69-4.08-8.37-5.31-18.99-6.94l-16.95-2.65
			c-11.44-1.84-20.42-5.51-26.75-11.03c-7.35-6.53-11.03-15.52-11.03-27.16c0-24.71,17.76-41.04,46.55-41.04
			c18.58,0,30.83,4.7,43.29,15.93l-10,10c-8.98-8.17-18.58-12.46-33.89-12.46c-19.4,0-30.63,10.82-30.63,26.95
			c0,7.15,2.04,12.86,6.53,16.74c4.49,3.88,12.05,6.74,19.6,7.96l15.92,2.45c13.68,2.04,20.42,4.9,26.54,10.21
			c7.96,6.74,12.25,16.74,12.25,28.79C1789.56,236.23,1769.55,251.95,1739.33,251.95z"/>
	</g>
	<g>
		<path class="st0" d="M568.85,332.45h-20.3v29.13h-5.95V291.7h22.7c7.45,0,13.28,1.8,17.47,5.42c4.19,3.61,6.29,8.66,6.29,15.15
			c0,4.47-1.31,8.42-3.93,11.84c-2.62,3.42-6.14,5.78-10.56,7.09l17.47,29.75v0.62h-6.29L568.85,332.45z M548.55,327.46h18.09
			c4.96,0,8.94-1.41,11.95-4.23c3.01-2.82,4.51-6.47,4.51-10.96c0-4.93-1.57-8.76-4.7-11.49c-3.14-2.72-7.54-4.09-13.2-4.09h-16.65
			V327.46z"/>
		<path class="st0" d="M722.35,328.08h-32.68v28.51h37.58v4.99h-43.48V291.7h43.24v4.99h-37.34v26.4h32.68V328.08z"/>
		<path class="st0" d="M867.79,339.79c-0.8,7.36-3.43,12.99-7.89,16.89c-4.46,3.9-10.41,5.86-17.83,5.86
			c-5.18,0-9.77-1.3-13.75-3.89c-3.98-2.59-7.06-6.26-9.24-11.01c-2.17-4.75-3.28-10.18-3.31-16.29v-9.07
			c0-6.21,1.09-11.71,3.26-16.51c2.17-4.8,5.3-8.5,9.38-11.11c4.08-2.61,8.77-3.91,14.09-3.91c7.49,0,13.4,2.02,17.74,6.05
			c4.33,4.03,6.85,9.62,7.56,16.75h-5.95c-1.47-11.87-7.92-17.81-19.34-17.81c-6.34,0-11.38,2.37-15.14,7.11
			c-3.76,4.74-5.64,11.29-5.64,19.65v8.55c0,8.07,1.83,14.51,5.5,19.31c3.66,4.8,8.62,7.2,14.85,7.2c6.18,0,10.83-1.48,13.97-4.44
			c3.14-2.96,5.07-7.4,5.81-13.32H867.79z"/>
		<path class="st0" d="M986.88,332.45h-20.3v29.13h-5.95V291.7h22.7c7.45,0,13.28,1.8,17.47,5.42c4.19,3.61,6.29,8.66,6.29,15.15
			c0,4.47-1.31,8.42-3.93,11.84c-2.62,3.42-6.14,5.78-10.56,7.09l17.47,29.75v0.62h-6.29L986.88,332.45z M966.58,327.46h18.09
			c4.96,0,8.94-1.41,11.95-4.23c3.01-2.82,4.51-6.47,4.51-10.96c0-4.93-1.57-8.76-4.7-11.49c-3.14-2.72-7.54-4.09-13.2-4.09h-16.65
			V327.46z"/>
		<path class="st0" d="M1149.94,291.7v47.71c-0.03,4.7-1.07,8.8-3.12,12.29c-2.05,3.49-4.94,6.17-8.66,8.04
			c-3.73,1.87-8.01,2.81-12.84,2.81c-7.36,0-13.25-2.01-17.69-6.02c-4.43-4.02-6.73-9.58-6.89-16.68V291.7h5.85v47.27
			c0,5.89,1.68,10.45,5.04,13.7c3.36,3.25,7.92,4.87,13.68,4.87c5.76,0,10.31-1.63,13.65-4.89c3.34-3.26,5.02-7.81,5.02-13.63V291.7
			H1149.94z"/>
		<path class="st0" d="M1252.23,361.58h-5.9V291.7h5.9V361.58z"/>
		<path class="st0" d="M1395.85,296.7h-23.95v64.89h-5.9V296.7h-23.9v-4.99h53.75V296.7z"/>
		<path class="st0" d="M1492.96,361.58h-5.9V291.7h5.9V361.58z"/>
		<path class="st0" d="M1642.58,361.58h-5.9l-40.17-59.8v59.8h-5.95V291.7h5.95l40.22,59.85V291.7h5.85V361.58z"/>
		<path class="st0" d="M1789.41,353.28c-2.05,2.91-5.25,5.18-9.62,6.81c-4.37,1.63-9.25,2.45-14.66,2.45
			c-5.47,0-10.34-1.31-14.59-3.94c-4.26-2.62-7.55-6.34-9.89-11.13c-2.34-4.8-3.52-10.3-3.55-16.51v-8.83
			c0-9.69,2.45-17.35,7.34-22.97c4.9-5.61,11.47-8.42,19.73-8.42c7.2,0,12.99,1.83,17.37,5.49c4.38,3.66,6.99,8.71,7.82,15.14h-5.9
			c-0.86-5.14-2.95-9.03-6.26-11.67c-3.31-2.65-7.64-3.97-12.98-3.97c-6.53,0-11.69,2.32-15.5,6.96
			c-3.81,4.64-5.71,11.19-5.71,19.65v8.26c0,5.32,0.9,10.02,2.71,14.1c1.81,4.08,4.4,7.24,7.77,9.49c3.38,2.24,7.26,3.36,11.64,3.36
			c5.09,0,9.45-0.8,13.1-2.4c2.37-1.06,4.13-2.29,5.28-3.7v-18.05h-18.77v-4.99h24.67V353.28z"/>
	</g>
</g>
<g>
	<g>
		<path class="st1" d="M349.31,280.83h-53.97c-16.67,0-30.19-13.52-30.19-30.19s13.52-30.19,30.19-30.19h53.97
			c18.11,0,31.03-3.89,38.38-11.57c11.87-12.39,10.85-35.94,10.36-47.26c-0.1-2.36-0.19-4.4-0.19-6.35
			c0-30.22-21.21-47.56-58.2-47.56l-148.27,0.67c-0.05,0-0.11,0-0.16,0c-16.6,0-30.1-13.41-30.19-30.03
			C160.95,61.68,174.4,48.09,191.07,48l148.43-0.67c35.55,0,65.56,10.71,86.95,30.98c20.5,19.43,31.79,46.76,31.79,76.96
			c0,0.96,0.07,2.23,0.13,3.75c0.78,18.14,2.62,60.62-27.07,91.63C412.11,270.67,384.53,280.83,349.31,280.83z"/>
	</g>
	<g>
		<path class="st1" d="M122.83,419.33l-11.35-0.11c-23.49-0.32-31.91-18.36-31.85-30.4c0.1-18.64,15.63-29.91,30.58-30.04l2.34-0.01
			c1.99,0,5.16,0,9.92,0.02c22.53,0.02,31.6,0.92,33.7-5.46c0.46-1.88,0.49-6.18,0.53-13.67V225.27
			c0-34.73,13.57-92.98,104.47-92.98h69.52c16.67,0,30.19,13.52,30.19,30.19s-13.52,30.19-30.19,30.19h-69.52
			c-37.49,0-44.09,10.51-44.09,32.6v114.38c0,14.97,0,40.01-18.2,58.16c-18.73,18.68-48.51,21.35-75.42,21.35c-0.21,0-0.41,0-0.62,0
			L122.83,419.33z"/>
	</g>
</g>
</svg>
