<svg height="512" viewBox="0 0 512 512" width="512" xmlns="http://www.w3.org/2000/svg"><path d="M511.984 255.985C511.984 397.4 397.386 512 256 512S.015 397.4.015 255.985C.015 114.6 114.615 0 256 0s255.984 114.6 255.984 255.985z" fill="#8F98A8"/><path d="M171.11 100.873c-5.59.09-10.968.984-16.165 2.288l42.62 42.62-13.667 37.422-38.12 14.394-42.73-42.77c-1.485 6.044-2.29 12.3-2.183 18.77.682 39.528 33.263 70.98 72.73 70.27 7.12-.122 14-1.29 20.453-3.35l160.31 160.718c6.636 6.65 15.423 9.894 24.12 9.742 8.27-.137 16.544-3.38 22.907-9.68 13-13 13-34.045.03-47.044l-160.68-161.02c2.167-6.985 3.242-14.424 3.09-22.12-.665-39.513-33.254-70.95-72.714-70.24zm218.336 288.74l-16.393 4.575-14.727-14.226 4.03-16.545 16.545-4.742 14.727 14.196-4.18 16.743z" fill="#E6E7E8"/><path d="M320.95 368.04l33.256 33.346c6.636 6.65 15.424 9.893 24.12 9.74 8.303-.135 16.544-3.377 22.907-9.695 13-12.968 13-34.027.03-47.026l-33.3-33.377-47.012 47.012zm68.345 21.71l-16.393 4.605-14.727-14.227 4.03-16.56 16.544-4.757 14.726 14.196-4.18 16.744z" fill="#FFF"/><path d="M318.92 370.1a3.933 3.933 0 0 0 5.576 0l45.497-45.513a3.95 3.95 0 0 0 0-5.59c-1.545-1.53-4.06-1.546-5.605 0l-45.468 45.512c-1.545 1.545-1.545 4.06 0 5.59z" fill="#FDDB52"/></svg>